<?xml version="1.0" encoding="UTF-8"?>
<!DOCTYPE svg PUBLIC "-//W3C//DTD SVG 1.1//EN" "http://www.w3.org/Graphics/SVG/1.1/DTD/svg11.dtd">
<!-- Creator: CorelDRAW -->
<svg xmlns="http://www.w3.org/2000/svg" xml:space="preserve" width="182.133mm" height="66.2608mm" version="1.1" style="shape-rendering:geometricPrecision; text-rendering:geometricPrecision; image-rendering:optimizeQuality; fill-rule:evenodd; clip-rule:evenodd"
viewBox="0 0 18213 6626"
 xmlns:xlink="http://www.w3.org/1999/xlink">
 <defs>
  <style type="text/css">
   <![CDATA[
    .fil74 {fill:#F3F3DF;fill-rule:nonzero}
    .fil9 {fill:#E9E9D5;fill-rule:nonzero}
    .fil14 {fill:#C2C2A9;fill-rule:nonzero}
    .fil61 {fill:#FFFFB6;fill-rule:nonzero}
    .fil22 {fill:#A49595;fill-rule:nonzero}
    .fil68 {fill:#F3CD9A;fill-rule:nonzero}
    .fil44 {fill:#F5CF22;fill-rule:nonzero}
    .fil72 {fill:#E6B380;fill-rule:nonzero}
    .fil39 {fill:#D99A67;fill-rule:nonzero}
    .fil64 {fill:#FDBE58;fill-rule:nonzero}
    .fil36 {fill:#CC804D;fill-rule:nonzero}
    .fil3 {fill:#C06734;fill-rule:nonzero}
    .fil34 {fill:#B34D1A;fill-rule:nonzero}
    .fil35 {fill:#8F2900;fill-rule:nonzero}
    .fil24 {fill:#B4B4AA;fill-rule:nonzero}
    .fil25 {fill:#95958B;fill-rule:nonzero}
    .fil26 {fill:#76766C;fill-rule:nonzero}
    .fil70 {fill:#F38A67;fill-rule:nonzero}
    .fil66 {fill:#F8D571;fill-rule:nonzero}
    .fil67 {fill:#F6DC86;fill-rule:nonzero}
    .fil62 {fill:#DFCB60;fill-rule:nonzero}
    .fil37 {fill:#E69C34;fill-rule:nonzero}
    .fil38 {fill:#9F4310;fill-rule:nonzero}
    .fil23 {fill:#A48B9A;fill-rule:nonzero}
    .fil10 {fill:#D5EBD5;fill-rule:nonzero}
    .fil21 {fill:#BECAD4;fill-rule:nonzero}
    .fil69 {fill:#9A7D5A;fill-rule:nonzero}
    .fil73 {fill:#E6FFE6;fill-rule:nonzero}
    .fil15 {fill:#E6F3FF;fill-rule:nonzero}
    .fil42 {fill:#DFB992;fill-rule:nonzero}
    .fil31 {fill:#A77C4E;fill-rule:nonzero}
    .fil43 {fill:#8D5F2C;fill-rule:nonzero}
    .fil65 {fill:#7E4E1D;fill-rule:nonzero}
    .fil71 {fill:#6A3700;fill-rule:nonzero}
    .fil28 {fill:#C57B12;fill-rule:nonzero}
    .fil33 {fill:#B96F06;fill-rule:nonzero}
    .fil32 {fill:#AE6400;fill-rule:nonzero}
    .fil41 {fill:#C7BD55;fill-rule:nonzero}
    .fil2 {fill:#BEA449;fill-rule:nonzero}
    .fil40 {fill:#BE9A20;fill-rule:nonzero}
    .fil30 {fill:#BE8800;fill-rule:nonzero}
    .fil12 {fill:#D9E4E4;fill-rule:nonzero}
    .fil17 {fill:#C5CADF;fill-rule:nonzero}
    .fil27 {fill:#C3E1D0;fill-rule:nonzero}
    .fil8 {fill:#98ACBB;fill-rule:nonzero}
    .fil11 {fill:#D0DAE9;fill-rule:nonzero}
    .fil18 {fill:#C1A7DD;fill-rule:nonzero}
    .fil6 {fill:#7C95A9;fill-rule:nonzero}
    .fil16 {fill:#CCE6BD;fill-rule:nonzero}
    .fil29 {fill:#A78600;fill-rule:nonzero}
    .fil20 {fill:#A18DCD;fill-rule:nonzero}
    .fil63 {fill:#927B22;fill-rule:nonzero}
    .fil49 {fill:#6558AC;fill-rule:nonzero}
    .fil59 {fill:#90ACD0;fill-rule:nonzero}
    .fil53 {fill:#A6C0FF;fill-rule:nonzero}
    .fil54 {fill:#9ABBFA;fill-rule:nonzero}
    .fil50 {fill:#1D5F69;fill-rule:nonzero}
    .fil56 {fill:#7EB4E9;fill-rule:nonzero}
    .fil55 {fill:#8DA4F8;fill-rule:nonzero}
    .fil58 {fill:#839AEE;fill-rule:nonzero}
    .fil5 {fill:#7188DC;fill-rule:nonzero}
    .fil4 {fill:#5F76CA;fill-rule:nonzero}
    .fil46 {fill:#4057AB;fill-rule:nonzero}
    .fil47 {fill:#2E4599;fill-rule:nonzero}
    .fil52 {fill:#12297D;fill-rule:nonzero}
    .fil48 {fill:#5A7B9D;fill-rule:nonzero}
    .fil7 {fill:#4E9A9D;fill-rule:nonzero}
    .fil57 {fill:#37B6E7;fill-rule:nonzero}
    .fil51 {fill:#2AA9DA;fill-rule:nonzero}
    .fil60 {fill:#0E8DBE;fill-rule:nonzero}
    .fil45 {fill:#005081;fill-rule:nonzero}
    .fil19 {fill:#15B6DC;fill-rule:nonzero}
    .fil0 {fill:black;fill-rule:nonzero}
    .fil1 {fill:#C1C1C1;fill-rule:nonzero}
    .fil13 {fill:white;fill-rule:nonzero}
   ]]>
  </style>
 </defs>
 <g id="Layer_x0020_1">
  <metadata id="CorelCorpID_0Corel-Layer"/>
  <g id="vc048258.ai">
   <g>
    <g>
     <path class="fil0" d="M5489 1085l-4063 -1085 -235 468 1660 574 -2702 -85 -149 511c0,0 4426,511 4341,468 -86,-42 1148,-851 1148,-851z"/>
     <path class="fil0" d="M12319 3936c0,0 4319,1362 4745,1277 425,-86 638,-362 425,-681 -213,-319 -4532,-1425 -4532,-1425l234 -384c0,0 4362,639 4681,468 319,-169 617,-723 -106,-850 -723,-128 -4468,-426 -4723,-341 -256,85 -383,1043 -383,1043l-341 893z"/>
     <path class="fil0" d="M4341 1873c0,0 -235,382 21,957 255,574 1702,2021 1957,2191 256,170 787,320 787,320l64 914c0,0 1022,596 2277,277 1255,-319 1298,-404 1298,-404l-85 -873c0,0 915,-255 1425,-829 511,-575 1341,-1468 1234,-2192 -106,-723 -1255,-1298 -2170,-1468 -915,-170 -3149,-277 -4404,-42 -1255,233 -1894,532 -2064,702 -170,170 -340,447 -340,447z"/>
     <path class="fil1" d="M6319 1170c0,0 -1404,213 -1617,724 -213,511 85,893 256,979 170,85 1617,766 1872,808 255,43 2851,128 2851,128l2043 -213c0,0 851,-170 680,-1064 -170,-894 -2553,-1362 -2553,-1362l-2936 -85 -596 85z"/>
     <path class="fil2" d="M16447 4324c-42,0 -298,43 -383,65 0,85 0,148 -21,233 298,192 617,213 915,341 64,-43 127,-64 191,-106 149,-447 -447,-468 -702,-533z"/>
     <path class="fil3" d="M17107 2431c-43,0 -213,128 -256,170 -21,341 511,554 703,213 0,-85 0,-171 -22,-255 -85,-43 -362,-128 -425,-128z"/>
     <path class="fil4" d="M10356 5069c-382,64 -297,489 -233,745 85,21 148,64 212,85 320,-170 43,-468 107,-723 -22,-43 -64,-64 -86,-107z"/>
     <path class="fil5" d="M11926 3473c0,0 -2319,405 -2787,341 -468,-64 -1979,-128 -1979,-128l-532 43c0,0 213,1000 341,1106 127,106 404,446 404,446 0,0 -234,363 64,660 298,298 893,447 1085,447 192,0 1426,-64 1617,-383 192,-319 192,-829 192,-829 0,0 829,-277 1319,-766 489,-490 617,-724 617,-724l-341 -213z"/>
     <path class="fil6" d="M4820 2962c0,0 1213,1490 1511,1767 297,276 1468,702 1468,702 0,0 -745,-426 -766,-830 -22,-404 298,-830 298,-830l-1639 -446 -702 -363 -298 -276 128 276z"/>
     <path class="fil7" d="M10192 5261c-170,20 -319,170 -447,319 298,-22 171,489 490,319 298,-170 64,-468 -43,-638z"/>
     <path class="fil8" d="M7426 5708c-383,255 320,595 511,638 340,21 659,127 1000,106 447,-170 1085,-64 1319,-574 -64,0 -127,0 -191,0 -809,489 -1873,319 -2639,-170z"/>
     <path class="fil9" d="M12043 1803c-808,85 -553,893 -680,1447 85,42 212,127 297,170 639,-213 681,-1106 383,-1617z"/>
     <path class="fil9" d="M12448 1675c-618,64 -86,788 -298,1149 -85,22 -320,149 -362,192 234,191 532,425 787,128 681,-320 511,-1256 -127,-1469z"/>
     <path class="fil10" d="M10320 973c-681,128 255,1021 596,809 553,0 1106,212 1659,128 -213,-766 -1361,-852 -2085,-894 -42,0 -128,-43 -170,-43z"/>
     <path class="fil11" d="M9979 2952c-404,21 -212,1021 43,575 107,361 489,0 724,42 21,-85 63,-149 85,-213 -128,-149 -320,-510 -596,-319 -43,0 -234,-64 -256,-85z"/>
     <path class="fil12" d="M9852 2101c-319,64 -639,-43 -936,106 0,43 21,107 21,149 808,171 1574,383 2404,490 256,-150 426,85 681,21 -255,-511 -915,-617 -1447,-575 -234,-127 -468,-149 -723,-191z"/>
     <path class="fil13" d="M11043 2292c-42,0 -255,64 -340,107 -21,64 -43,128 -64,191 255,64 447,469 724,319 63,0 297,-63 319,-106 -43,-319 -405,-425 -639,-511z"/>
     <path class="fil12" d="M9256 867c-340,42 -681,85 -1043,64 -63,42 -106,85 -170,127 149,235 511,-85 596,277 489,276 1085,234 1638,298 64,0 107,0 171,0 191,-192 361,-639 -107,-575 -362,-106 -723,-127 -1085,-191z"/>
     <path class="fil14" d="M9277 1463c-595,85 -1255,-170 -1766,234 64,42 107,64 171,106 255,0 489,22 744,22 554,-150 1064,148 1575,21 21,-64 42,-107 64,-171 -213,-191 -532,-106 -788,-212z"/>
     <path class="fil15" d="M10149 1016c-191,-22 -191,383 -446,234 -21,63 -43,106 -64,170 362,170 362,574 745,681 212,106 383,255 595,298 43,-43 64,-213 43,-256 128,-170 383,43 489,-191 64,21 298,21 341,21 -192,-596 -936,-596 -1383,-851 -64,-21 -277,-85 -320,-106z"/>
     <path class="fil15" d="M10639 1973c-64,43 85,43 0,0z"/>
     <path class="fil16" d="M9150 2356c-426,192 -22,724 21,1064 21,277 319,255 489,383 277,-426 -255,-808 -255,-1213 -64,-63 -234,-212 -255,-234z"/>
     <path class="fil17" d="M8682 2229c-149,170 -617,-43 -447,403 -43,427 276,1341 830,979 85,-21 148,-42 233,-42 -42,-298 -255,-510 -170,-851 85,-362 -276,-319 -446,-489z"/>
     <path class="fil18" d="M7958 1952c-808,149 -383,1043 -127,1489 106,128 340,213 447,43 21,43 212,127 255,106 -128,-553 -128,-1127 -490,-1596 -21,-21 -64,-21 -85,-42z"/>
     <path class="fil19" d="M7362 2016c-148,21 -446,64 -212,276 191,447 0,1171 596,1383 63,-21 127,-42 191,-64 -85,-574 -255,-1106 -575,-1595z"/>
     <path class="fil20" d="M6682 2973c-170,43 -319,298 -511,64 -43,22 -106,43 -170,64 64,510 595,319 936,510 64,-21 383,-21 468,-21 21,-63 42,-127 42,-191 -255,-107 -531,-213 -765,-426z"/>
     <path class="fil8" d="M6788 1718c-362,276 170,724 64,1106 64,213 106,490 362,617 63,-42 127,-85 170,-127 21,-490 -234,-894 -362,-1320 -213,-42 -106,-169 -234,-276z"/>
     <path class="fil21" d="M8086 909c-425,-21 -724,85 -979,447 22,64 43,107 43,170 319,0 617,0 936,0 298,-106 617,22 915,-21 -21,-192 234,-574 -192,-511 -234,-21 -489,-42 -723,-85z"/>
     <path class="fil8" d="M7639 1016c-596,-43 -1106,106 -1659,149 -64,43 -128,85 -213,148 128,213 468,426 702,277 298,-191 808,43 1000,-319 170,64 319,-127 170,-255z"/>
     <path class="fil22" d="M6490 1867c-149,63 -340,-42 -468,127 277,405 404,830 681,1235 64,-43 106,-64 170,-107 -21,-447 85,-979 -383,-1255z"/>
     <path class="fil6" d="M5873 1782c-21,21 -128,148 -149,191 -43,-43 -213,-21 -255,21 383,448 532,937 893,1383 64,0 107,22 171,22 191,-617 -405,-1085 -660,-1617z"/>
     <path class="fil23" d="M5192 1697c-425,297 64,787 234,1085 192,191 319,702 681,553 106,-404 -404,-681 -468,-1042 -128,-213 -276,-405 -447,-596z"/>
     <path class="fil24" d="M4937 1994c-341,149 149,384 149,554 170,170 340,468 574,511 21,-64 21,-128 21,-192 -318,-255 -489,-596 -744,-873z"/>
     <path class="fil25" d="M4852 1803c-511,468 276,1256 808,1404 107,-298 -425,-383 -489,-638 -234,-212 -213,-511 -319,-766z"/>
     <path class="fil26" d="M4724 1782c-362,212 -277,1064 234,1021 -64,-276 -340,-574 -106,-873 -21,-42 -128,-148 -128,-148z"/>
     <path class="fil21" d="M11469 3399c-830,128 -1639,234 -2511,298 0,42 0,106 0,170 830,42 1638,-149 2426,-234 42,-42 106,-192 85,-234z"/>
     <path class="fil27" d="M4820 2601c-319,234 340,425 447,617 1170,617 2553,723 3893,617 -64,-383 -681,-42 -958,-170 -1265,-181 -2403,-213 -3382,-1064z"/>
     <path class="fil4" d="M11862 3484c-425,234 -978,64 -1361,447 -149,532 596,404 872,446 383,-21 830,-297 872,-680 -276,106 -234,-86 -383,-213z"/>
     <path class="fil28" d="M7958 1611c-106,22 -245,-10 -340,53 21,33 32,54 53,86 245,53 479,202 734,96 21,-32 32,-64 43,-96 -160,-64 -330,-75 -490,-139z"/>
     <path class="fil29" d="M13766 3856c-148,-32 -276,213 -63,224 32,10 159,10 180,10 -10,-85 160,-234 -64,-202 -20,-10 -31,-21 -53,-32z"/>
     <path class="fil30" d="M10979 3005c-85,21 -276,192 -117,256 133,95 230,-39 213,-148 -7,-48 -37,-91 -96,-108z"/>
     <path class="fil31" d="M14447 2186c-149,-10 -192,160 -308,234 11,22 21,53 32,75 -32,-11 -170,0 -202,10 74,288 414,170 627,234 0,-32 0,-96 -10,-106 32,10 159,32 191,32 -10,-96 -128,-192 -43,-287 54,-192 -191,-139 -287,-192z"/>
     <path class="fil32" d="M8160 1675c-21,0 -127,171 -170,235 298,276 745,127 1085,233 809,22 1575,256 2362,43 21,-64 21,-128 21,-192 -744,-319 -1681,-64 -2468,-276 -255,-85 -574,85 -830,-43z"/>
     <path class="fil33" d="M11862 1930c-212,22 -446,-84 -595,150 0,63 -22,127 -22,191 851,192 1703,277 2596,362 21,-64 42,-128 64,-191 -43,-405 -542,-293 -819,-399 -362,-64 -734,-53 -1224,-113z"/>
     <path class="fil3" d="M14224 2122c-85,0 -553,128 -723,171 85,85 170,170 213,297 1234,128 2510,341 3744,341 -341,-851 -1745,-383 -2553,-596 -170,-42 -639,-170 -681,-213z"/>
     <path class="fil34" d="M14575 2261c-63,-11 -191,21 -127,117 893,0 1734,138 2617,191 42,-10 85,-32 116,-42 -21,-22 -42,-43 -64,-64 -861,-43 -1680,-170 -2542,-202z"/>
     <path class="fil29" d="M12352 2016c-11,11 -43,75 -43,106 606,75 1213,139 1841,149 21,0 52,-10 74,-10 -42,-213 -362,-32 -510,-107 -458,-53 -916,-63 -1362,-138z"/>
     <path class="fil3" d="M474 1021c-21,0 -213,107 -298,171 43,42 85,85 107,127 1319,213 2681,64 3979,341 106,0 483,26 568,26 43,-64 -43,-149 -21,-191 -639,-490 -1718,-154 -2484,-303 -595,-107 -1255,-43 -1851,-171z"/>
     <path class="fil35" d="M261 1256c-21,0 -138,21 -191,42 21,21 43,43 53,64 479,0 905,159 1383,127 851,118 1745,32 2564,224 277,-11 510,32 787,32 -11,-32 -11,-64 -21,-85 -766,-53 -1479,-192 -2255,-203 -787,-53 -1553,-85 -2320,-201z"/>
     <path class="fil3" d="M6591 1510c-42,0 -170,128 -212,171 446,170 957,128 1425,277 42,-43 85,-85 128,-107 -150,-425 -703,-127 -1022,-298 -64,-21 -298,-43 -319,-43z"/>
     <path class="fil35" d="M4846 1383c-21,0 -148,149 -170,213 341,277 830,234 1213,234 43,-64 64,-106 106,-149 -361,-171 -765,-192 -1149,-298z"/>
     <path class="fil36" d="M17920 2798c-159,106 -371,43 -563,21 -22,32 -53,64 -74,96 10,43 21,74 21,117 223,-10 521,95 638,-138 0,-33 -22,-96 -22,-96z"/>
     <path class="fil37" d="M17900 2660c-126,0 -96,195 -24,210 25,5 56,-13 87,-72 -10,-32 -53,-117 -63,-138z"/>
     <path class="fil38" d="M14570 2394c-21,0 -128,127 -149,191 830,319 1808,319 2702,362 -85,-383 -703,-149 -979,-277 -532,-64 -1106,-21 -1574,-276z"/>
     <path class="fil32" d="M8229 1798c-212,-64 -340,383 43,234 340,21 617,170 979,127 361,-106 766,192 1085,-42 -43,-42 -107,-85 -149,-128 -660,-85 -1319,0 -1958,-191z"/>
     <path class="fil39" d="M8431 1734c-21,0 -148,11 -202,21 11,32 22,64 32,96 511,53 1011,96 1521,107 43,0 86,0 128,10 -10,-32 -21,-64 -32,-95 -478,-75 -989,-11 -1447,-139z"/>
     <path class="fil37" d="M10282 1968c-21,0 -95,53 -116,75 319,85 680,96 1021,63 -11,-31 -32,-53 -53,-85 -288,0 -564,-10 -852,-53z"/>
     <path class="fil35" d="M7974 1628c-106,-17 -150,106 -143,192 7,79 57,126 143,10 11,-53 11,-181 0,-202z"/>
     <path class="fil34" d="M17495 2553c-96,11 -234,22 -202,170 11,43 11,85 21,138 181,-42 320,54 490,22 21,-32 32,-75 42,-106 -74,-160 -234,-149 -351,-224z"/>
     <path class="fil34" d="M5261 1160c-42,42 -170,297 -170,425 851,341 1744,469 2596,766 84,-85 170,-170 255,-255 -809,-553 -1830,-511 -2681,-936z"/>
     <path class="fil3" d="M1511 181c-22,21 -43,128 -64,192 808,403 1431,446 2155,765 914,234 1531,469 2297,681 43,0 171,21 213,21 149,-361 -639,-436 -830,-542 -1298,-469 -2431,-798 -3771,-1117z"/>
     <path class="fil40" d="M7878 1862c-43,42 -171,297 -171,425 1022,384 2043,554 3065,851 127,0 212,0 340,0 511,-553 -808,-340 -936,-595 -723,-426 -1575,-256 -2298,-681z"/>
     <path class="fil41" d="M9985 2585c-22,0 -150,22 -203,32 22,21 32,54 43,85 276,149 585,181 851,330 42,0 85,0 127,11 11,-32 22,-54 33,-85 53,-235 -298,-107 -405,-202 -138,-85 -297,-107 -446,-171z"/>
     <path class="fil30" d="M11208 2851c-43,43 -170,298 -170,426 851,298 1702,595 2638,638 -43,-128 181,-261 138,-346 -809,-255 -1840,-420 -2606,-718z"/>
     <path class="fil40" d="M13974 3532c-426,-42 -213,809 213,596 723,170 1446,596 2213,553 -341,-894 -1703,-596 -2426,-1149z"/>
     <path class="fil34" d="M6282 1393c-10,0 -64,64 -74,96 531,149 1021,394 1574,479 128,-138 -191,-106 -223,-159 -447,-96 -840,-288 -1277,-416z"/>
     <path class="fil34" d="M13782 3500c-10,0 -53,75 -64,106 532,160 1064,256 1585,447 394,96 756,277 1160,341 0,-32 0,-64 0,-86 -841,-244 -1638,-574 -2511,-733 -31,-11 -149,-64 -170,-75z"/>
     <path class="fil42" d="M13984 3702c-10,11 -117,32 -159,43 -11,31 -22,64 -43,95 85,96 255,96 341,11 0,-106 -86,-96 -139,-149z"/>
     <path class="fil41" d="M16452 4553c-191,85 53,351 192,341 96,21 223,149 308,31 96,-127 -106,-361 -234,-233 -74,-85 -191,-54 -266,-139z"/>
     <path class="fil40" d="M16314 4649c-96,0 -42,223 64,159 181,86 330,213 542,181 138,-138 -202,-85 -223,-138 -128,-53 -255,-128 -383,-202z"/>
     <path class="fil30" d="M17058 4553c-244,11 -202,468 54,405 74,-54 191,-235 21,-256 -11,-32 -64,-128 -75,-149z"/>
     <path class="fil43" d="M16420 4234c-181,107 96,245 192,224 138,31 298,10 415,95 21,-31 42,-53 64,-74 -181,-202 -458,-138 -671,-245z"/>
     <path class="fil44" d="M16527 4383c-22,0 -138,32 -181,53 11,43 11,86 11,128 191,53 393,180 595,128 11,-43 11,-75 22,-118 -107,-159 -298,-138 -447,-191z"/>
     <path class="fil45" d="M10856 3745c-531,21 -1063,84 -1616,84 0,43 0,107 0,171 531,-64 1340,574 1659,-149 0,-42 -21,-64 -43,-106z"/>
     <path class="fil46" d="M5899 3681c-255,170 106,723 362,681 85,-43 149,-85 212,-106 64,-363 -382,-405 -574,-575z"/>
     <path class="fil47" d="M10282 5000c-383,149 -809,149 -1234,149 -21,64 -43,128 -85,191 467,43 979,86 1362,-170 0,-64 -22,-107 -43,-170z"/>
     <path class="fil48" d="M8835 4192c-170,85 -319,106 -468,234 43,42 106,85 149,148 298,-21 574,128 851,22 21,-64 43,-128 63,-170 -190,-107 -446,-22 -595,-234z"/>
     <path class="fil46" d="M7878 4128c-341,191 213,446 361,468 43,21 213,85 256,85 85,-362 -468,-277 -617,-553z"/>
     <path class="fil46" d="M5984 3447c-21,21 -85,170 -85,234 1085,404 2298,276 3489,361 64,-42 128,-85 192,-127 -404,-234 -936,-86 -1404,-128 -745,-42 -1511,-42 -2192,-340z"/>
     <path class="fil5" d="M10176 3851c-234,64 -809,-170 -766,234 255,-21 510,-21 787,-21 0,-43 0,-192 -21,-213z"/>
     <path class="fil49" d="M7325 5490c-320,170 149,361 297,446 256,106 532,149 809,213 21,-64 64,-107 85,-149 -404,-192 -851,-192 -1191,-510z"/>
     <path class="fil4" d="M7346 5319c-234,21 0,447 149,362 340,170 681,213 1085,213 43,-22 106,-64 149,-86 -341,-340 -830,-191 -1213,-425 -64,-21 -106,-43 -170,-64z"/>
     <path class="fil46" d="M10154 5553c-255,319 -617,426 -1042,426 -383,63 -766,-171 -1106,-43 42,43 85,106 127,149 638,128 1426,234 1979,-170 42,-85 64,-319 42,-362z"/>
     <path class="fil50" d="M10133 5553c-489,362 -1064,277 -1660,213 43,64 64,128 86,192 531,148 1149,148 1595,-192 22,-64 0,-191 -21,-213z"/>
     <path class="fil51" d="M10090 5490c-425,212 -957,297 -1446,202 -43,-22 -192,-32 -224,-32 22,32 43,53 53,85 415,181 894,74 1320,0 74,-75 404,-96 297,-255z"/>
     <path class="fil52" d="M10154 5426c-510,170 -1106,255 -1649,116 -21,22 -42,43 -74,75 266,170 585,128 894,139 276,-107 659,10 861,-245 -10,-32 -21,-54 -32,-85z"/>
     <path class="fil53" d="M8452 4925c-128,22 53,288 -149,266 -149,54 -106,341 64,288 43,11 181,32 213,32 138,-171 117,-511 -128,-586z"/>
     <path class="fil21" d="M7782 4755c-106,11 -213,-31 -287,75 74,202 191,415 415,457 234,-106 85,-479 -128,-532z"/>
     <path class="fil54" d="M6591 3686c-290,29 -215,306 -49,431 77,59 173,85 261,38 22,-192 0,-383 -212,-469z"/>
     <path class="fil53" d="M6325 4048c-171,-10 -203,170 -43,245 106,53 170,181 287,181 160,-214 -96,-330 -244,-426z"/>
     <path class="fil53" d="M5633 3591c-213,63 43,468 213,393 43,-10 74,-10 106,-10 11,-33 22,-64 32,-96 -106,-128 -223,-213 -351,-287z"/>
     <path class="fil55" d="M6856 4260c-83,52 -69,198 -5,290 42,60 105,98 176,72 -11,-138 -53,-276 -171,-362z"/>
     <path class="fil53" d="M7048 4059c-10,0 -106,32 -138,42 10,96 85,245 191,255 32,-21 53,-42 85,-63 22,-107 -74,-160 -138,-234z"/>
     <path class="fil55" d="M7250 3899c-160,128 181,234 266,298 11,-32 11,-64 21,-96 -106,-53 -181,-160 -287,-202z"/>
     <path class="fil55" d="M7372 3814c-37,0 -127,21 -58,69 90,37 181,69 293,53 21,-26 122,-64 42,-101 -90,-21 -186,-5 -277,-21z"/>
     <path class="fil5" d="M7968 4128c-74,5 -154,0 -218,48 10,10 16,21 21,37 80,0 165,16 240,0 10,-32 -22,-64 -43,-85z"/>
     <path class="fil56" d="M8181 3872c-80,6 -154,16 -229,43 6,16 16,32 21,48 59,32 139,16 208,21 90,16 48,-85 0,-112z"/>
     <path class="fil51" d="M7707 4240c-63,26 -15,164 53,170 49,16 33,95 91,74 43,-21 37,-85 91,-69 -27,-96 -160,-111 -235,-175z"/>
     <path class="fil57" d="M7181 4511c-48,5 -27,79 -32,111 16,0 96,0 117,0 37,11 138,-74 32,-90 -22,-6 -101,-16 -117,-21z"/>
     <path class="fil55" d="M8484 4447c-85,11 -234,-11 -202,127 29,-4 87,-3 137,-9 75,-10 135,-35 65,-118z"/>
     <path class="fil27" d="M7218 4798c-180,117 75,362 202,436 32,0 54,0 85,0 54,-171 -202,-287 -287,-436z"/>
     <path class="fil10" d="M7569 4787c-138,96 138,245 138,362 22,0 43,0 64,0 43,-149 -106,-245 -202,-362z"/>
     <path class="fil21" d="M8346 4904c-224,85 -160,458 42,522 32,-11 64,-22 96,-32 -32,-170 -32,-341 -138,-490z"/>
     <path class="fil53" d="M9154 4840c-149,32 -287,43 -436,96 -95,149 53,436 256,330 127,21 446,-32 276,-223 -10,-43 -85,-171 -96,-203z"/>
     <path class="fil8" d="M9888 4808c-149,64 -319,-53 -446,64 21,181 212,181 329,266 107,-42 160,-180 266,-223 -21,-32 -32,-64 -53,-85 -21,-11 -96,-22 -96,-22z"/>
     <path class="fil53" d="M8463 3905c-116,36 -75,100 -7,121 52,15 118,6 145,-58 -21,-21 -117,-63 -138,-63z"/>
     <path class="fil53" d="M5889 3521c-171,96 117,203 180,224 43,10 181,106 202,138 32,-11 64,-21 86,-21 10,-53 10,-96 21,-138 -138,-139 -330,-107 -489,-203z"/>
     <path class="fil58" d="M9080 4128c-106,10 -213,31 -309,95 0,22 -10,54 -21,85 128,0 277,43 372,-74 0,-32 -21,-96 -42,-106z"/>
     <path class="fil58" d="M8314 4075c-151,75 -68,161 45,196 78,23 171,22 210,-26 -21,-150 -170,-117 -255,-170z"/>
     <path class="fil55" d="M9591 3883c-149,-64 -479,170 -245,276 74,-95 159,-180 276,-180 0,-22 -21,-86 -31,-96z"/>
     <path class="fil59" d="M8814 4426c-96,10 -96,159 -128,223 149,0 288,-11 415,-53 -11,-32 -32,-64 -53,-85 -53,-75 -181,-22 -234,-85z"/>
     <path class="fil60" d="M7580 5521c-106,-31 -309,149 -117,224 53,149 223,63 308,170 224,85 64,-149 213,-192 -64,-159 -277,-117 -404,-202z"/>
     <path class="fil52" d="M11452 3660c-340,-43 -617,127 -936,191 21,64 43,128 64,191 340,-21 723,-297 1064,-42 85,-21 170,-43 255,-43 -21,-64 -42,-128 -64,-170 -85,-21 -340,-106 -383,-127z"/>
     <path class="fil46" d="M11942 3936c-554,277 -1192,298 -1830,341 -22,42 -43,106 -85,170 85,0 319,21 382,21 192,-42 426,-42 639,-42 340,-43 681,-107 936,-320 0,-42 -42,-170 -42,-170z"/>
     <path class="fil49" d="M11559 4277c-596,212 -1256,149 -1894,170 21,64 43,127 64,191 361,0 702,43 1064,22 234,-149 744,21 830,-319 -22,-22 -43,-43 -64,-64z"/>
     <path class="fil46" d="M11069 4553c-617,149 -1276,149 -1915,107 -42,42 -85,106 -127,148 319,107 638,107 978,107 341,-128 979,85 1128,-298 -21,-21 -42,-43 -64,-64z"/>
     <path class="fil5" d="M5516 3234c-194,46 -159,160 -53,249 139,115 400,187 436,6 -85,-191 -276,-127 -383,-255z"/>
     <path class="fil61" d="M16548 4404c-21,0 -85,64 -106,85 170,33 308,118 489,128 -11,-32 -11,-64 -21,-85 -117,-53 -245,-85 -362,-128z"/>
     <path class="fil62" d="M17186 4532c-144,-17 -160,109 -117,196 36,74 114,120 192,27 53,-85 10,-181 -75,-223z"/>
     <path class="fil63" d="M15452 4266c-117,0 22,245 107,149 181,53 351,138 542,138 32,-21 64,-31 85,-53 -234,-106 -500,-117 -734,-234z"/>
     <path class="fil64" d="M14144 3766c-160,63 64,234 138,245 458,148 926,191 1383,319 128,32 266,74 394,117 31,-21 64,-32 85,-53 -415,-213 -883,-245 -1340,-352 -235,-42 -469,-85 -660,-276z"/>
     <path class="fil43" d="M13803 3575c-106,-11 -106,212 54,127 42,11 202,22 233,22 54,-181 -212,-85 -287,-149z"/>
     <path class="fil65" d="M13750 3639c-191,42 -170,372 11,372 53,-118 -117,-213 21,-298 -10,-22 -21,-53 -32,-74z"/>
     <path class="fil31" d="M13942 3766c-170,0 -149,457 21,287 -42,-38 -39,-77 -26,-116 20,-60 63,-120 5,-171z"/>
     <path class="fil66" d="M11208 3022c-11,10 -43,74 -43,105 596,139 1191,267 1788,416 180,21 318,159 499,181 22,-22 43,-43 54,-64 -490,-277 -1043,-330 -1585,-469 -245,-10 -458,-148 -713,-169z"/>
     <path class="fil67" d="M10431 2756c-10,10 -42,74 -42,105 170,33 351,139 521,76 -21,-22 -43,-54 -64,-76 -138,-53 -287,-31 -415,-105z"/>
     <path class="fil43" d="M13835 3968c-117,0 11,234 96,149 660,202 1298,447 1979,575 149,31 266,85 415,95 21,-10 53,-32 74,-43 -138,-137 -340,-84 -500,-170 -713,-138 -1372,-393 -2064,-606z"/>
     <path class="fil43" d="M12687 3639c-22,0 -75,63 -86,95 309,159 649,234 1000,287 54,-170 -277,-138 -361,-212 -192,-43 -373,-107 -553,-170z"/>
     <path class="fil43" d="M10984 3022c-138,31 -127,351 64,287 436,159 883,234 1308,393 43,0 86,0 118,0 -11,-32 -32,-63 -43,-85 -425,-160 -883,-244 -1308,-404 -213,21 -11,-139 -139,-191z"/>
     <path class="fil33" d="M11091 2798c-160,96 138,213 202,202 766,202 1521,394 2266,628 53,-11 96,-22 138,-32 -11,-32 -32,-64 -42,-96 -841,-287 -1734,-383 -2564,-702z"/>
     <path class="fil68" d="M8048 2075c-10,10 -42,74 -42,106 329,160 702,138 1021,319 181,21 330,138 532,117 -11,-32 -21,-64 -43,-96 -404,-85 -766,-298 -1191,-340 -96,-53 -192,-42 -277,-106z"/>
     <path class="fil36" d="M9740 2798c-117,0 10,234 95,149 320,64 617,180 926,277 42,-11 85,-22 117,-33 -11,-21 -32,-53 -53,-74 -362,-117 -713,-223 -1085,-319z"/>
     <path class="fil69" d="M9974 2425c-11,0 -54,75 -54,107 351,85 681,170 1011,309 32,0 64,0 96,0 0,-256 -341,-192 -490,-277 -181,-64 -382,-64 -563,-139z"/>
     <path class="fil43" d="M8410 2043c-11,11 -42,85 -42,116 435,128 883,213 1308,373 53,11 95,21 138,32 21,-21 43,-43 64,-64 -468,-223 -979,-287 -1468,-457z"/>
     <path class="fil35" d="M7995 2266c-11,11 -42,85 -42,117 563,192 1127,351 1701,511 33,10 117,32 139,32 -32,-245 -372,-170 -542,-245 -416,-170 -852,-224 -1256,-415z"/>
     <path class="fil70" d="M6325 1543c-11,10 -43,74 -43,106 362,96 724,117 1054,298 53,11 234,0 276,-11 -32,-32 -53,-53 -85,-74 -287,-32 -511,-213 -808,-213 -117,-85 -266,-53 -394,-106z"/>
     <path class="fil70" d="M1559 255c-11,11 -42,75 -42,107 478,159 914,394 1436,425 627,171 1255,288 1851,543 213,53 468,0 649,149 191,21 372,159 574,117 -42,-181 -308,-85 -436,-192 -245,-127 -532,-159 -819,-202 -777,-308 -1585,-478 -2426,-627 -255,-128 -521,-224 -787,-320z"/>
     <path class="fil35" d="M6293 1692c-11,10 -42,85 -42,117 531,170 1031,383 1552,574 22,0 43,0 64,0 128,-149 -180,-224 -266,-277 -457,-85 -872,-276 -1308,-414z"/>
     <path class="fil35" d="M2059 245c-117,10 32,234 106,149 671,298 1405,404 2096,628 511,84 958,329 1468,404 192,85 404,117 607,159 31,-202 -288,-128 -394,-202 -426,-160 -883,-191 -1298,-404 -638,-138 -1266,-319 -1893,-490 -235,-74 -458,-180 -692,-244z"/>
     <path class="fil35" d="M1442 309c-10,0 -53,64 -53,96 436,138 851,287 1298,393 787,266 1585,415 2351,713 351,96 712,149 1032,329 53,0 95,11 138,22 10,-32 21,-53 32,-85 -330,-139 -660,-277 -1032,-330 -777,-277 -1564,-489 -2362,-702 -383,-139 -787,-224 -1181,-351 -53,-75 -170,-21 -223,-85z"/>
     <path class="fil29" d="M7942 1862c-181,-22 -224,223 10,170 160,43 309,138 490,127 42,-180 -245,-169 -340,-233 -43,-11 -150,-53 -160,-64z"/>
     <path class="fil65" d="M17410 2447c-138,-22 -223,361 -22,245 0,-22 11,-54 11,-75 149,85 351,96 521,96 0,-256 -340,-224 -510,-266z"/>
     <path class="fil65" d="M14463 2319c-117,53 -138,426 53,404 -31,-62 -24,-133 -19,-201 6,-72 10,-143 -34,-203z"/>
     <path class="fil35" d="M14283 2266c-36,16 -63,66 -74,125 -20,100 4,223 105,237 54,-117 43,-256 -31,-362z"/>
     <path class="fil65" d="M11655 2128c-21,21 -43,159 -43,223 787,149 1596,170 2383,277 64,-43 106,-85 149,-128 -628,-106 -1649,-53 -2489,-372z"/>
     <path class="fil71" d="M11431 2096c-127,43 -233,202 -382,106 -150,0 -299,-43 -458,0 21,21 32,53 42,75 235,64 522,-22 735,117 32,0 53,0 85,0 -22,-107 53,-213 -22,-298z"/>
     <path class="fil65" d="M8623 1968c-21,0 -85,64 -106,85 329,128 712,-10 1032,128 53,0 255,10 297,10 0,-32 -10,-63 -10,-95 -394,-53 -755,-117 -1160,-96 -21,-11 -32,-21 -53,-32z"/>
     <path class="fil72" d="M14570 2330c-11,0 -54,64 -54,95 820,75 1628,128 2416,277 52,0 106,-10 148,-10 22,-32 43,-54 64,-75 -851,-128 -1691,-245 -2574,-287z"/>
     <path class="fil39" d="M11995 2032c-10,0 -63,64 -74,96 585,127 1213,95 1798,234 53,0 244,32 298,43 21,-11 42,-33 63,-43 -244,-171 -563,-107 -840,-181 -394,-106 -851,-32 -1245,-149z"/>
     <path class="fil39" d="M219 1106c-11,11 -32,86 -32,117 362,75 734,96 1117,64 351,-31 670,85 1021,85 171,21 352,32 522,32 447,11 893,75 1340,85 32,-21 64,-42 85,-63 -309,-139 -691,-22 -1021,-107 -574,-42 -1149,-53 -1713,-149 -447,11 -904,64 -1319,-64z"/>
     <path class="fil32" d="M11293 1947c-86,26 -139,123 -133,216 3,56 28,110 80,146 128,-86 95,-256 53,-362z"/>
     <path class="fil73" d="M5756 3218c-149,85 117,202 170,223 543,128 1053,288 1639,256 180,-96 -192,-149 -213,-106 -500,0 -947,-150 -1415,-266 -32,-22 -160,-96 -181,-107z"/>
     <path class="fil74" d="M4671 2590c-139,107 138,266 192,372 276,118 521,288 818,320 64,-181 -265,-117 -351,-223 -255,-97 -467,-235 -659,-469z"/>
     <path class="fil53" d="M6501 4559c-192,63 63,159 95,255 117,53 213,159 341,149 11,-43 21,-75 32,-107 -149,-117 -319,-170 -468,-297z"/>
     <path class="fil21" d="M8213 6090c-106,-10 -31,245 86,159 212,75 436,118 681,118 127,-21 254,-43 393,-32 106,-53 245,0 298,-149 -21,-11 -53,-21 -85,-21 -436,138 -957,117 -1373,-75z"/>
     <path class="fil55" d="M8905 5335c-11,10 -128,10 -170,10 -11,22 -32,43 -53,64 106,75 223,118 351,138 32,-31 53,-52 85,-74 10,-181 -149,-53 -213,-138z"/>
     <path class="fil55" d="M7831 5261c-181,10 -160,255 42,202 43,10 202,21 245,21 42,-192 -192,-170 -287,-223z"/>
     <path class="fil8" d="M10735 4835c-224,-21 -394,85 -617,64 0,21 -11,53 -11,85 223,43 479,53 670,-107 -10,-10 -31,-31 -42,-42z"/>
     <path class="fil34" d="M3426 963c-107,0 -32,223 74,149 426,181 851,277 1277,415 42,0 85,-11 127,-11 0,-32 0,-64 -10,-85 -341,-191 -745,-171 -1085,-351 -128,-32 -266,-43 -383,-117z"/>
     <path class="fil0" d="M12320 3829c-149,-63 -7638,-2255 -7638,-2255l-596 -297c0,0 5809,1617 6447,1808 638,192 1915,660 1915,660l-128 84z"/>
    </g>
   </g>
  </g>
 </g>
</svg>
