<?xml version="1.0" encoding="UTF-8"?>
<!DOCTYPE svg PUBLIC "-//W3C//DTD SVG 1.1//EN" "http://www.w3.org/Graphics/SVG/1.1/DTD/svg11.dtd">
<!-- Creator: CorelDRAW -->
<svg xmlns="http://www.w3.org/2000/svg" xml:space="preserve" width="120.748mm" height="100.906mm" version="1.1" style="shape-rendering:geometricPrecision; text-rendering:geometricPrecision; image-rendering:optimizeQuality; fill-rule:evenodd; clip-rule:evenodd"
viewBox="0 0 12075 10091"
 xmlns:xlink="http://www.w3.org/1999/xlink">
 <defs>
  <style type="text/css">
   <![CDATA[
    .fil2 {fill:#FFFFD7;fill-rule:nonzero}
    .fil3 {fill:#FFB003;fill-rule:nonzero}
    .fil4 {fill:#FF8800;fill-rule:nonzero}
    .fil1 {fill:#9FA99F;fill-rule:nonzero}
    .fil6 {fill:#ACFD86;fill-rule:nonzero}
    .fil0 {fill:#7B922C;fill-rule:nonzero}
    .fil5 {fill:black;fill-rule:nonzero}
   ]]>
  </style>
 </defs>
 <g id="Layer_x0020_1">
  <metadata id="CorelCorpID_0Corel-Layer"/>
  <g id="vc107279.ai">
   <g>
    <path class="fil0" d="M1319 2011c0,217 29,546 -57,932 -85,386 -229,586 -229,586 0,0 615,786 1802,829 1186,43 2130,-586 2130,-586 0,0 -86,-429 -115,-858 -28,-429 72,-786 72,-786 0,0 -1135,577 -2450,563 -1316,-14 -1153,-680 -1153,-680z"/>
    <path class="fil1" d="M5585 3257c0,217 29,546 -57,932 -86,386 -229,586 -229,586 0,0 715,715 1901,758 1187,43 2127,-661 2127,-661 0,0 -128,-528 -157,-886 -28,-357 -40,-743 -40,-743 0,0 -443,718 -1758,703 -1315,-14 -1787,-689 -1787,-689z"/>
    <path class="fil2" d="M3142 2388c974,0 1980,-455 1894,-1198 -86,-743 -920,-1126 -1894,-1126 -974,0 -1765,521 -1765,1162 0,640 791,1162 1765,1162z"/>
    <path class="fil2" d="M7479 3348c974,0 1766,-521 1766,-1162 0,-641 -792,-1162 -1766,-1162 -973,0 -1765,521 -1765,1162 0,641 792,1162 1765,1162z"/>
    <path class="fil3" d="M7646 2074c-371,-120 -900,151 -700,423 200,271 929,208 929,-100 0,-309 -229,-323 -229,-323z"/>
    <path class="fil3" d="M3309 1110c-371,-120 -900,151 -700,423 200,272 963,180 963,-128 0,-309 -263,-295 -263,-295z"/>
    <path class="fil4" d="M1257 5197c117,19 9431,3678 9431,3678 0,0 422,299 164,713 -257,415 -657,144 -657,144l-9481 -4206 543 -329z"/>
    <path class="fil4" d="M739 4209l9980 2376c0,0 376,302 191,716 -186,415 -572,186 -572,186l-10022 -2884 423 -394z"/>
    <polygon class="fil5" points="10000,9843 1960,6132 1859,6371 9898,10082 "/>
    <path class="fil5" d="M10568 9817c178,-375 -57,-643 -330,-750l-7869 -3234c-449,-168 -901,-341 -1348,-509 -242,131 -490,256 -732,387l1872 798 35 -274 -1299 -552 142 -75 9107 3703c101,66 269,152 169,393 -121,156 -273,164 -407,102 -36,-18 -48,263 -48,263 102,44 567,45 708,-252z"/>
    <path class="fil5" d="M10685 7521c92,-282 27,-617 -399,-723l-8210 -2123c-463,-109 -935,-212 -1398,-320 -224,165 -454,322 -678,486l1905 536 63 -253 -1368 -395 132 -95c3163,808 6328,1609 9494,2418 89,49 296,110 212,372 -17,54 -74,117 -188,125 -72,5 -149,-15 -200,-21l-41 249c19,0 141,59 229,56 162,-7 379,-104 447,-312z"/>
    <polygon class="fil5" points="10256,7583 1852,5090 1784,5342 10187,7834 "/>
    <path class="fil5" d="M5073 4569c438,441 1121,775 1757,843 1404,148 2283,-841 2320,-883 -74,-62 -159,-136 -230,-201 -8,10 -816,912 -2058,780 -231,-24 -1032,-156 -1610,-822l-179 283z"/>
    <path class="fil5" d="M7632 981c-929,-133 -1712,73 -2147,565 -306,348 -410,810 -285,1270 85,311 298,555 632,726 646,331 1646,313 2203,106 669,-250 1084,-550 1084,-1278 0,-663 -509,-1006 -530,-1021l-169 255 0 0c16,10 394,271 394,766 0,501 -215,742 -886,992 -432,161 -1353,219 -1957,-91 -255,-131 -415,-311 -476,-535 -100,-364 -22,-715 219,-988 365,-414 1049,-584 1875,-465l43 -302z"/>
    <path class="fil5" d="M5201 2763c6,124 8,239 10,362 2,140 5,285 13,459 12,246 -115,797 -164,989l295 76c8,-30 190,-737 174,-1079 -8,-170 -11,-313 -13,-450 -2,-125 -4,-242 -10,-371l-305 14z"/>
    <path class="fil5" d="M8771 2747c-3,19 -88,468 -73,908 16,441 176,995 183,1019 84,-48 174,-101 258,-148 -1,-5 -121,-479 -136,-882 -14,-406 67,-835 68,-839l-300 -58z"/>
    <path class="fil5" d="M7462 1269c882,131 1059,436 1060,439l275 -132c-21,-46 -235,-451 -1290,-609l-45 302z"/>
    <path class="fil5" d="M7070 1928c-468,-8 -574,258 -595,340 -46,179 45,370 222,464 205,109 478,138 681,74 127,-40 220,-114 271,-214 129,-251 -18,-444 -114,-511l-175 250 -2 -2c39,31 46,73 19,124 -17,35 -64,54 -91,62 -126,40 -313,18 -446,-52 -52,-28 -80,-77 -69,-119 14,-58 111,-114 294,-111l5 -305z"/>
    <path class="fil5" d="M7023 2233c326,-6 371,113 371,114l299 -59c-7,-38 -79,-371 -675,-360l5 305z"/>
    <path class="fil5" d="M831 1492c102,393 22,1608 -184,1897l243 174 63 -114c15,-26 361,-652 180,-1997l-302 40z"/>
    <path class="fil5" d="M4517 1479c-261,1434 12,2148 24,2178l20 55 263 -167c-2,-6 -250,-673 -7,-2011l-300 -55z"/>
    <path class="fil5" d="M728 3449c2167,1666 4038,141 4057,126 -66,-77 -130,-159 -196,-234 -69,57 -1706,1380 -3675,-134l-186 242z"/>
    <path class="fil5" d="M2035 88c-982,283 -1468,784 -1099,1722 478,1304 3704,1290 3870,-292 101,-640 -474,-1161 -915,-1327 -406,-154 -593,-142 -626,-138l37 303 -4 1c2,-1 148,-9 485,120 335,126 795,528 721,992 -2,1123 -2855,1333 -3282,213 -303,-774 138,-1089 898,-1300l-85 -294z"/>
    <path class="fil5" d="M2039 403c252,-75 513,-98 741,-97 376,2 661,67 665,68l71 -296c-21,-5 -355,-83 -790,-78 -239,3 -509,31 -774,110l87 293z"/>
    <path class="fil5" d="M2646 930c-331,25 -442,222 -440,391 2,248 158,457 500,487 455,40 830,-232 688,-622 -84,-231 -335,-273 -471,-261 9,100 19,204 25,304 1,0 135,-5 159,60 32,130 -132,248 -364,230 -223,-17 -243,-103 -226,-203 10,-60 136,-54 160,-83 24,-28 -31,-303 -31,-303z"/>
    <path class="fil5" d="M2537 1270c230,-91 487,-34 490,-34l69 -297c-14,-3 -350,-79 -671,48l112 283z"/>
    <polygon class="fil5" points="1863,675 1648,939 2000,876 "/>
    <polygon class="fil5" points="1708,1190 1894,1419 1594,1362 "/>
    <polygon class="fil5" points="1834,1768 2143,1711 1985,1942 "/>
    <polygon class="fil5" points="2543,1956 2557,2199 2706,2005 "/>
    <polygon class="fil5" points="3101,1991 3109,2285 3309,2185 "/>
    <polygon class="fil5" points="3684,1688 3421,1753 3507,1905 "/>
    <polygon class="fil5" points="3721,1201 3992,1376 3678,1416 "/>
    <polygon class="fil5" points="3907,896 3987,1044 4136,830 "/>
    <polygon class="fil5" points="6560,1562 6574,1805 6723,1610 "/>
    <polygon class="fil5" points="4158,1662 4221,1876 3944,1819 "/>
    <polygon class="fil5" points="2257,533 2443,667 2171,696 "/>
    <polygon class="fil5" points="2663,447 2843,641 2858,432 "/>
    <polygon class="fil5" points="3178,595 2972,761 3258,738 "/>
    <polygon class="fil5" points="3606,533 3549,776 3764,632 "/>
    <polygon class="fil5" points="4650,1319 4716,1553 4501,1390 "/>
    <polygon class="fil5" points="7209,1519 7195,1776 7380,1696 "/>
    <polygon class="fil5" points="6125,1665 5911,1928 6263,1865 "/>
    <polygon class="fil5" points="5971,2179 6157,2408 5856,2351 "/>
    <polygon class="fil5" points="6097,2757 6405,2700 6248,2931 "/>
    <polygon class="fil5" points="6806,2946 6820,3189 6969,2994 "/>
    <polygon class="fil5" points="7363,2980 7372,3274 7572,3174 "/>
    <polygon class="fil5" points="7947,2677 7683,2742 7769,2894 "/>
    <polygon class="fil5" points="7927,2185 8193,2385 7884,2399 "/>
    <polygon class="fil5" points="8170,1836 8250,1985 8398,1770 "/>
    <polygon class="fil5" points="8493,2165 8493,2422 8641,2228 "/>
    <polygon class="fil5" points="8421,2651 8484,2866 8207,2808 "/>
    <polygon class="fil5" points="6520,1522 6706,1656 6434,1685 "/>
    <polygon class="fil5" points="6926,1436 7106,1630 7120,1422 "/>
    <polygon class="fil5" points="7440,1585 7235,1750 7521,1727 "/>
    <polygon class="fil5" points="7869,1522 7812,1765 8027,1622 "/>
    <polygon class="fil5" points="9027,1622 9093,1856 8879,1693 "/>
    <polygon class="fil5" points="9127,2136 9113,2394 9247,2251 "/>
    <path class="fil5" d="M9623 3987c-224,965 482,1669 1154,1979 515,238 1001,165 1022,162l-43 -266 1 0c-5,0 -429,62 -867,-140 -129,-60 -1251,-612 -1004,-1674l-263 -61z"/>
    <path class="fil6" d="M10179 3957c0,0 493,-517 1055,-206 562,310 825,898 839,1201 14,303 -62,1017 -62,1017 0,0 -1454,-343 -1785,-1078 -331,-735 -47,-934 -47,-934z"/>
    <path class="fil5" d="M9800 4266c360,-298 694,-387 993,-264 444,183 718,794 746,1085 47,487 -19,856 -20,860l265 49c3,-17 74,-408 23,-935 -32,-339 -334,-1070 -911,-1308 -275,-113 -717,-152 -1268,306l172 207z"/>
    <polygon class="fil5" points="10503,4043 10282,4195 10553,4341 "/>
    <polygon class="fil5" points="11049,4452 10803,4539 10938,4742 "/>
    <polygon class="fil5" points="10499,4562 10284,4571 10382,4789 "/>
    <polygon class="fil5" points="11347,4795 11102,4883 11328,5018 "/>
    <polygon class="fil5" points="10777,4959 10651,5177 10866,5168 "/>
    <polygon class="fil5" points="11369,5324 11153,5350 11341,5555 "/>
    <polygon class="fil5" points="11566,4063 11692,4256 11530,4285 "/>
    <polygon class="fil5" points="11827,4441 11745,4688 11913,4721 "/>
    <polygon class="fil5" points="11940,5125 11814,5361 11955,5421 "/>
    <path class="fil5" d="M9346 4074c969,207 1660,-512 1958,-1189 228,-520 146,-1004 143,-1025l-265 47 -1 0c1,4 70,427 -124,869 -57,130 -588,1262 -1654,1035l-57 263z"/>
    <path class="fil6" d="M9306 3519c0,0 -526,-483 -226,-1051 301,-568 884,-842 1186,-861 303,-19 1018,43 1018,43 0,0 -316,1460 -1045,1805 -729,344 -933,64 -933,64z"/>
    <path class="fil5" d="M9622 3892c-305,-354 -400,-686 -282,-988 175,-447 780,-732 1071,-766 486,-55 856,4 860,5l44 -266c-16,-3 -409,-67 -935,-6 -339,39 -1064,354 -1291,935 -108,276 -138,720 329,1262l204 -176z"/>
    <polygon class="fil5" points="9387,3193 9542,3412 9683,3138 "/>
    <polygon class="fil5" points="9785,2640 9877,2884 10077,2746 "/>
    <polygon class="fil5" points="9905,3188 9918,3403 10135,3301 "/>
    <polygon class="fil5" points="10123,2336 10215,2579 10346,2350 "/>
    <polygon class="fil5" points="10297,2903 10517,3025 10504,2810 "/>
    <polygon class="fil5" points="10651,2305 10681,2520 10882,2328 "/>
    <polygon class="fil5" points="9386,2130 9578,2001 9609,2162 "/>
    <polygon class="fil5" points="9760,1862 10008,1940 10039,1771 "/>
    <polygon class="fil5" points="10442,1737 10680,1859 10737,1717 "/>
   </g>
  </g>
 </g>
</svg>
