<?xml version="1.0" encoding="UTF-8"?>
<!DOCTYPE svg PUBLIC "-//W3C//DTD SVG 1.1//EN" "http://www.w3.org/Graphics/SVG/1.1/DTD/svg11.dtd">
<!-- Creator: CorelDRAW -->
<svg xmlns="http://www.w3.org/2000/svg" xml:space="preserve" width="209.277mm" height="142.428mm" version="1.1" style="shape-rendering:geometricPrecision; text-rendering:geometricPrecision; image-rendering:optimizeQuality; fill-rule:evenodd; clip-rule:evenodd"
viewBox="0 0 20928 14243"
 xmlns:xlink="http://www.w3.org/1999/xlink">
 <defs>
  <style type="text/css">
   <![CDATA[
    .fil0 {fill:black;fill-rule:nonzero}
    .fil1 {fill:white;fill-rule:nonzero}
   ]]>
  </style>
 </defs>
 <g id="Layer_x0020_1">
  <metadata id="CorelCorpID_0Corel-Layer"/>
  <g id="vc045502.ai">
   <g>
    <g>
     <g>
      <path class="fil0" d="M1623 2792c537,-536 2055,-2068 5531,-2604 1196,-185 2624,-251 4323,-118 6639,519 8973,5238 8973,5238 0,0 724,1759 389,3683 -432,2484 -2583,4947 -8518,5226 -635,29 -1312,34 -2036,12 -3041,-96 -5254,-668 -6830,-1514 -2105,-1130 -3073,-2750 -3360,-4378 -171,-971 -99,-1944 118,-2819 288,-1161 833,-2148 1410,-2726z"/>
      <path class="fil1" d="M1364 10002c0,0 854,2308 5057,3189 4204,881 7702,415 10166,-493 2464,-907 3376,-2113 3552,-3111 -130,26 -1659,2152 -4641,2697 -2983,544 -6421,628 -9543,-52 -3123,-681 -4591,-2230 -4591,-2230z"/>
      <path class="fil1" d="M5237 8565c2012,0 3648,-843 3648,-1879 0,-1036 -1636,-1879 -3648,-1879 -2012,0 -3649,843 -3649,1879 0,1036 1637,1879 3649,1879z"/>
      <path class="fil0" d="M5274 8197c1634,0 3059,-685 3059,-1527 0,-842 -1425,-1525 -3059,-1525 -1635,0 -3048,709 -3048,1551 0,842 1413,1501 3048,1501z"/>
      <path class="fil1" d="M5052 6865c195,0 380,-90 380,-286 0,-195 -120,-246 -315,-246 -195,0 -393,51 -393,246 0,196 133,286 328,286z"/>
      <path class="fil1" d="M4028 7176c195,0 380,-90 380,-286 0,-195 -120,-246 -315,-246 -196,0 -393,51 -393,246 0,196 132,286 328,286z"/>
      <path class="fil1" d="M4313 6475c195,0 380,-90 380,-285 0,-195 -120,-246 -315,-246 -195,0 -393,51 -393,246 0,195 133,285 328,285z"/>
      <path class="fil1" d="M6206 6670c195,0 380,-90 380,-285 0,-196 -120,-247 -315,-247 -195,0 -393,51 -393,247 0,195 133,285 328,285z"/>
      <path class="fil1" d="M5458 7617c229,0 445,-106 445,-334 0,-229 -140,-289 -369,-289 -228,0 -460,60 -460,289 0,228 156,334 384,334z"/>
      <path class="fil1" d="M6993 7163c262,0 510,-106 510,-334 0,-229 -161,-289 -423,-289 -262,0 -528,60 -528,289 0,228 178,334 441,334z"/>
      <path class="fil1" d="M3283 7059c139,0 269,-64 269,-202 0,-138 -84,-174 -223,-174 -138,0 -278,36 -278,174 0,138 94,202 232,202z"/>
      <path class="fil1" d="M4671 7591c138,0 269,-64 269,-202 0,-138 -85,-175 -223,-175 -138,0 -278,37 -278,175 0,138 94,202 232,202z"/>
      <path class="fil1" d="M5112 6216c138,0 268,-63 268,-202 0,-138 -84,-174 -223,-174 -137,0 -278,36 -278,174 0,139 95,202 233,202z"/>
      <path class="fil1" d="M6196 7150c112,0 218,-52 218,-164 0,-112 -69,-142 -181,-142 -112,0 -225,30 -225,142 0,112 76,164 188,164z"/>
      <path class="fil1" d="M6170 7798c112,0 218,-52 218,-164 0,-112 -69,-141 -181,-141 -112,0 -225,29 -225,141 0,112 76,164 188,164z"/>
      <path class="fil1" d="M6791 7733c157,0 306,-72 306,-229 0,-158 -97,-199 -254,-199 -157,0 -316,41 -316,199 0,157 107,229 264,229z"/>
      <path class="fil1" d="M4989 8109c157,0 306,-72 306,-230 0,-157 -97,-198 -254,-198 -157,0 -316,41 -316,198 0,158 106,230 264,230z"/>
      <path class="fil1" d="M3887 7759c157,0 306,-72 306,-230 0,-157 -97,-198 -254,-198 -157,0 -316,41 -316,198 0,158 106,230 264,230z"/>
      <path class="fil1" d="M3148 7577c157,0 306,-72 306,-229 0,-157 -97,-198 -254,-198 -157,0 -317,41 -317,198 0,157 107,229 265,229z"/>
      <path class="fil1" d="M3668 6566c112,0 218,-51 218,-164 0,-111 -69,-141 -181,-141 -112,0 -226,30 -226,141 0,113 76,164 189,164z"/>
      <path class="fil1" d="M4394 7967c112,0 218,-52 218,-164 0,-112 -69,-142 -181,-142 -112,0 -226,30 -226,142 0,112 76,164 189,164z"/>
      <path class="fil1" d="M5664 8045c113,0 219,-52 219,-164 0,-112 -69,-142 -181,-142 -112,0 -226,30 -226,142 0,112 76,164 188,164z"/>
      <path class="fil1" d="M7428 7539c112,0 218,-52 218,-164 0,-112 -69,-141 -181,-141 -112,0 -225,29 -225,141 0,112 76,164 188,164z"/>
      <path class="fil1" d="M5561 6424c112,0 218,-52 218,-164 0,-112 -69,-142 -181,-142 -112,0 -226,30 -226,142 0,112 76,164 189,164z"/>
      <path class="fil1" d="M5664 6890c113,0 219,-51 219,-163 0,-113 -69,-142 -181,-142 -112,0 -226,29 -226,142 0,112 76,163 188,163z"/>
      <path class="fil1" d="M1708 7707c272,169 1283,1310 3747,1206 2463,-104 3384,-1271 3384,-1271 0,0 19,1633 -1173,2308 -1193,674 -3449,466 -4590,-78 -1141,-545 -1477,-2232 -1368,-2165z"/>
      <path class="fil1" d="M14469 9006c2012,0 3648,-843 3648,-1879 0,-1036 -1636,-1879 -3648,-1879 -2013,0 -3649,843 -3649,1879 0,1036 1636,1879 3649,1879z"/>
      <path class="fil0" d="M14505 8638c1635,0 2964,-685 2964,-1526 0,-842 -1329,-1526 -2964,-1526 -1634,0 -2963,684 -2963,1526 0,841 1329,1526 2963,1526z"/>
      <path class="fil1" d="M10933 8264c272,169 1394,1194 3857,1090 2464,-104 3385,-1271 3385,-1271 0,0 117,1464 -1109,2165 -1226,701 -3643,583 -4784,39 -1141,-545 -1458,-2090 -1349,-2023z"/>
      <polygon class="fil1" points="13118,7590 14258,6916 14440,7201 13325,7824 "/>
      <polygon class="fil1" points="14285,7746 14959,8135 14673,8264 14051,7901 "/>
      <polygon class="fil1" points="12599,6935 13545,7052 13591,7182 13494,7279 12553,7156 "/>
      <polygon class="fil1" points="13701,7876 13649,8427 13921,8465 13934,7895 "/>
      <polygon class="fil1" points="14446,7383 14732,7824 14965,7908 14667,7338 "/>
      <polygon class="fil1" points="12819,7396 13422,8342 13027,8252 12502,7448 "/>
      <polygon class="fil1" points="15185,7966 15600,7318 15951,7422 15510,8148 "/>
      <polygon class="fil1" points="15840,8018 16482,8109 16787,7895 15970,7733 "/>
      <polygon class="fil1" points="14686,7110 15315,7318 15497,7098 14816,6890 "/>
      <polygon class="fil1" points="16113,7441 16807,7150 16968,7357 16366,7629 "/>
      <polygon class="fil1" points="11964,7467 12314,7175 12405,7538 12074,7752 "/>
      <polygon class="fil1" points="13753,6611 14446,6462 14550,6787 14375,6845 14258,6709 13805,6871 "/>
      <polygon class="fil1" points="15393,6890 15640,6722 16139,7234 15691,7221 15659,7039 "/>
      <polygon class="fil1" points="14706,8459 15212,8122 15594,8394 "/>
      <polygon class="fil1" points="14116,8433 14142,8109 14440,8258 14446,8452 "/>
      <polygon class="fil1" points="12210,7856 12489,7668 12774,8161 "/>
      <path class="fil1" d="M10475 4624c2012,0 3649,-843 3649,-1879 0,-1037 -1637,-1879 -3649,-1879 -2012,0 -3649,842 -3649,1879 0,1036 1637,1879 3649,1879z"/>
      <path class="fil0" d="M10512 4255c1634,0 2964,-684 2964,-1526 0,-841 -1330,-1526 -2964,-1526 -1635,0 -2964,685 -2964,1526 0,842 1329,1526 2964,1526z"/>
      <path class="fil1" d="M9254 2836c113,0 205,-92 205,-206 0,-112 -92,-204 -205,-204 -113,0 -205,92 -205,204 0,114 92,206 205,206z"/>
      <path class="fil1" d="M9798 3069c113,0 205,-92 205,-205 0,-113 -92,-205 -205,-205 -113,0 -205,92 -205,205 0,113 92,205 205,205z"/>
      <path class="fil1" d="M9370 3393c114,0 205,-92 205,-205 0,-113 -91,-205 -205,-205 -113,0 -205,92 -205,205 0,113 92,205 205,205z"/>
      <path class="fil1" d="M9941 3691c113,0 205,-91 205,-205 0,-113 -92,-205 -205,-205 -113,0 -205,92 -205,205 0,114 92,205 205,205z"/>
      <path class="fil1" d="M10369 3289c113,0 205,-92 205,-204 0,-114 -92,-205 -205,-205 -113,0 -205,91 -205,205 0,112 92,204 205,204z"/>
      <path class="fil1" d="M10576 3912c113,0 205,-92 205,-205 0,-113 -92,-205 -205,-205 -113,0 -205,92 -205,205 0,113 92,205 205,205z"/>
      <path class="fil1" d="M10084 4171c113,0 205,-92 205,-205 0,-113 -92,-205 -205,-205 -114,0 -205,92 -205,205 0,113 91,205 205,205z"/>
      <path class="fil1" d="M9435 4015c113,0 205,-92 205,-204 0,-114 -92,-205 -205,-205 -113,0 -205,91 -205,205 0,112 92,204 205,204z"/>
      <path class="fil1" d="M8839 3821c113,0 205,-92 205,-205 0,-113 -92,-205 -205,-205 -113,0 -205,92 -205,205 0,113 92,205 205,205z"/>
      <path class="fil1" d="M8787 3251c113,0 205,-92 205,-205 0,-114 -92,-206 -205,-206 -113,0 -205,92 -205,206 0,113 92,205 205,205z"/>
      <path class="fil1" d="M8320 3652c113,0 205,-92 205,-204 0,-114 -92,-205 -205,-205 -113,0 -205,91 -205,205 0,112 92,204 205,204z"/>
      <path class="fil1" d="M10978 3575c113,0 205,-92 205,-205 0,-113 -92,-205 -205,-205 -113,0 -205,92 -205,205 0,113 92,205 205,205z"/>
      <path class="fil1" d="M11199 4171c113,0 205,-92 205,-205 0,-113 -92,-205 -205,-205 -113,0 -206,92 -206,205 0,113 93,205 206,205z"/>
      <path class="fil1" d="M11717 3834c113,0 205,-92 205,-205 0,-113 -92,-205 -205,-205 -113,0 -205,92 -205,205 0,113 92,205 205,205z"/>
      <path class="fil1" d="M12365 3834c114,0 206,-92 206,-205 0,-113 -92,-205 -206,-205 -112,0 -205,92 -205,205 0,113 93,205 205,205z"/>
      <path class="fil1" d="M11912 3393c113,0 205,-92 205,-205 0,-113 -92,-205 -205,-205 -113,0 -205,92 -205,205 0,113 92,205 205,205z"/>
      <path class="fil1" d="M11263 3160c114,0 206,-92 206,-205 0,-113 -92,-205 -206,-205 -113,0 -205,92 -205,205 0,113 92,205 205,205z"/>
      <path class="fil1" d="M10745 2926c113,0 205,-92 205,-205 0,-113 -92,-204 -205,-204 -113,0 -205,91 -205,204 0,113 92,205 205,205z"/>
      <path class="fil1" d="M10278 2693c113,0 205,-92 205,-205 0,-113 -92,-205 -205,-205 -113,0 -205,92 -205,205 0,113 92,205 205,205z"/>
      <path class="fil1" d="M11756 2862c113,0 205,-93 205,-205 0,-114 -92,-205 -205,-205 -113,0 -205,91 -205,205 0,112 92,205 205,205z"/>
      <path class="fil1" d="M12469 3263c113,0 205,-91 205,-205 0,-112 -92,-205 -205,-205 -113,0 -205,93 -205,205 0,114 92,205 205,205z"/>
      <path class="fil1" d="M11108 2576c113,0 205,-92 205,-205 0,-113 -92,-205 -205,-205 -113,0 -205,92 -205,205 0,113 92,205 205,205z"/>
      <path class="fil1" d="M12923 3601c113,0 205,-92 205,-205 0,-114 -92,-205 -205,-205 -113,0 -205,91 -205,205 0,113 92,205 205,205z"/>
      <path class="fil1" d="M6796 3545c0,311 66,874 221,1179 0,0 1699,609 2068,1407 207,312 1485,369 1771,162 220,-402 1638,-1100 2722,-1245 150,-20 434,-654 434,-1251 0,0 -648,831 -2645,1142 -1997,311 -3579,-467 -3968,-752 -388,-285 -603,-642 -603,-642z"/>
     </g>
    </g>
   </g>
  </g>
 </g>
</svg>
