<?xml version="1.0" encoding="UTF-8"?>
<!DOCTYPE svg PUBLIC "-//W3C//DTD SVG 1.1//EN" "http://www.w3.org/Graphics/SVG/1.1/DTD/svg11.dtd">
<!-- Creator: CorelDRAW -->
<svg xmlns="http://www.w3.org/2000/svg" xml:space="preserve" width="107.049mm" height="95.0612mm" version="1.1" style="shape-rendering:geometricPrecision; text-rendering:geometricPrecision; image-rendering:optimizeQuality; fill-rule:evenodd; clip-rule:evenodd"
viewBox="0 0 10705 9506"
 xmlns:xlink="http://www.w3.org/1999/xlink">
 <defs>
  <style type="text/css">
   <![CDATA[
    .fil14 {fill:black}
    .fil3 {fill:#669ACA}
    .fil12 {fill:#7979AC}
    .fil2 {fill:#80DEF5}
    .fil13 {fill:darkred}
    .fil6 {fill:#A24613}
    .fil10 {fill:#A28B8B}
    .fil11 {fill:#A2A2D5}
    .fil9 {fill:#CCCCFF}
    .fil0 {fill:#D0FBFF}
    .fil8 {fill:#DF8137}
    .fil5 {fill:#FF4D4D}
    .fil7 {fill:#FFCC7E}
    .fil4 {fill:#FFE4E4}
    .fil1 {fill:white}
   ]]>
  </style>
 </defs>
 <g id="__x0023_Layer_x0020_1">
  <metadata id="CorelCorpID_0Corel-Layer"/>
  <g id="tran0689.ai">
   <g>
    <polygon class="fil0" points="394,817 1031,474 1798,671 2532,394 3529,591 5453,394 6513,604 10411,721 9598,8823 1819,9150 1081,8773 "/>
    <polygon class="fil1" points="7054,1073 7130,692 7213,507 7327,314 7524,201 7666,143 8006,302 8236,298 8530,377 8731,490 8869,780 9079,1220 9481,1274 9259,1467 8903,1760 8433,1811 7976,1664 8006,1907 8467,2297 8374,2850 8852,3160 8869,3747 8156,5063 9439,5017 8886,6220 8609,6677 8140,7264 7637,7796 6610,8156 5034,8337 2452,8337 696,5977 1639,5260 1312,3990 1153,3127 4221,2184 4581,2200 6497,2657 6400,2268 6560,1865 6866,1739 6857,1060 "/>
    <polygon class="fil2" points="5222,8986 6547,9049 8048,8169 8550,7616 8400,7276 8953,6790 8852,6627 9343,6124 9213,5780 9766,5260 9955,4330 9896,3504 9506,3290 9896,2900 9569,2884 9846,2641 9376,2527 9732,2460 9213,2297 9732,2217 9016,2054 9473,1957 9129,1811 8739,2008 9016,2251 8727,2347 9129,2477 8739,2691 8999,2850 8496,3014 8919,3973 8513,5440 8618,5407 8835,5336 9053,5281 9129,5294 9062,5386 8944,5512 8835,5621 8789,5667 8693,5977 8999,6153 8609,6677 8563,6870 7930,7343 8123,7507 6920,7897 7603,7457 8106,6886 7830,6790 8525,6191 8337,5994 8366,5604 8173,5440 6870,7067 5554,8190 3378,8366 2288,8303 1589,7310 1459,7637 1836,8513 3232,9100 "/>
    <polygon class="fil3" points="8919,3437 9246,3341 10013,3672 8919,4380 9955,4330 10152,5000 9955,5981 9946,6501 6954,7570 6740,8207 6010,8546 2615,8580 5943,7846 7180,6316 8789,4007 "/>
    <polygon class="fil4" points="7863,1630 8249,1760 8773,1706 9259,1467 8756,1534 8676,1320 8496,1274 8383,1501 8286,1320 8089,1161 7959,1454 "/>
    <polygon class="fil4" points="7172,1039 7343,1224 7574,1127 7511,780 7846,629 7930,838 8337,754 8437,914 8785,1107 8659,771 8433,591 8073,637 7666,461 7473,478 7507,625 7310,704 7327,901 "/>
    <polygon class="fil5" points="6886,1291 6920,1630 7180,1844 7360,1811 7536,1941 7783,1924 7783,1630 7293,1517 7100,1517 "/>
    <polygon class="fil6" points="7846,3341 5248,4707 5034,7230 5277,7230 7783,4657 7897,3567 "/>
    <polygon class="fil7" points="2062,3144 4418,2167 7943,3127 6463,4158 5248,4707 3596,3948 "/>
    <polygon class="fil8" points="1614,3533 3978,4217 5101,4740 4954,7360 4271,7327 1832,6455 1786,4367 "/>
    <polygon class="fil9" points="1241,6191 1718,6073 2062,6434 4338,7360 2469,7507 1379,6593 "/>
    <polygon class="fil10" points="1639,5260 645,5830 532,6010 616,6254 2108,8224 4254,8173 6061,7750 8513,4594 8869,3747 8919,3177 8387,2963 8270,3110 8626,3341 8416,3940 7310,5294 5931,6689 6727,6400 5784,7377 5394,7586 3068,7767 2448,7687 1379,6593 1136,6057 1718,5633 "/>
    <polygon class="fil11" points="7649,1664 7716,2200 8416,2477 7930,2641 7846,3227 7943,3437 7943,4007 7783,4657 8253,4120 8546,3567 8270,3110 8618,2221 8006,1907 7959,1454 "/>
    <polygon class="fil11" points="7100,1601 7067,2192 7360,2150 7293,1517 "/>
    <polygon class="fil12" points="1689,6870 1526,6333 1865,6270 1689,5780 1136,6057 1102,6384 "/>
    <polygon class="fil13" points="7088,1442 7100,1777 7360,1811 7360,1442 "/>
    <polygon class="fil13" points="7649,1664 7700,1907 8014,1748 7959,1454 "/>
    <polygon class="fil14" points="1790,5357 1899,5906 1241,6191 1220,6392 2494,7402 5206,7197 8186,4078 8454,3538 8261,3269 8366,3051 8756,3198 8756,3667 8098,4606 5570,7268 5181,7427 2448,7687 1899,7272 868,6170 868,5885 "/>
    <polygon class="fil14" points="1769,5114 499,5663 415,6203 1899,8261 2351,8672 5415,8458 6555,7716 8785,4275 8995,3810 8970,3106 8374,2850 8387,2963 8852,3160 8898,3542 8634,4137 7867,5269 5746,7729 2108,8052 637,6115 637,5893 1756,5222 "/>
    <polygon class="fil14" points="7142,947 6857,1060 6773,1190 6907,2054 7067,2192 7276,2138 7100,2054 7004,1811 6907,1442 7100,1601 7255,1609 7276,1433 7088,1442 6941,1178 7172,1039 7457,1019 "/>
    <polygon class="fil14" points="7637,1039 7373,1148 7234,1295 7276,2138 7331,2297 7888,2255 8006,2066 8077,1358 7901,1169 7951,1345 7867,1970 7804,2117 7633,2171 7457,2192 7415,1538 7352,1371 7498,1199 7708,1094 "/>
    <polygon class="fil14" points="7360,1442 7582,1526 7783,1475 7951,1345 7985,1559 7792,1718 7637,1781 7360,1643 "/>
    <polygon class="fil14" points="6866,1739 6560,1865 6275,2200 6455,2771 6539,2833 6539,2339 7859,2687 7729,3311 7846,3341 8006,2812 8416,2477 8182,3311 8014,3500 7972,3743 8228,3487 8597,2456 8618,2221 8006,1907 7943,1991 8467,2297 8014,2561 6539,2171 6635,1970 6928,1853 "/>
    <polygon class="fil14" points="6744,2523 6912,2536 7029,2683 6987,2821 6882,2821 6710,2733 "/>
    <polygon class="fil14" points="7230,2733 7377,2662 7565,2733 7607,2863 7524,2988 7314,2934 "/>
    <polygon class="fil14" points="7054,1073 6962,830 7012,620 7142,503 7151,323 7318,189 7519,134 7666,143 7804,197 8006,302 8161,218 8362,218 8584,302 8731,490 8827,641 8869,780 8626,557 8374,461 8249,469 8207,608 7985,440 7708,281 7402,323 7318,448 7339,608 7192,599 7130,692 7109,822 7172,1039 7234,1136 "/>
    <polygon class="fil14" points="7687,1316 7574,1127 7595,905 7750,801 7930,838 8048,977 8048,851 8278,838 8437,914 8509,1115 8618,1019 8785,1107 8856,1220 8890,1413 8974,1345 9246,1324 9481,1274 9586,1136 9385,1211 9079,1220 8974,1094 8794,935 8576,863 8437,733 8207,704 8014,733 7846,629 7624,671 7511,780 7477,968 7498,1199 7595,1304 "/>
    <polygon class="fil14" points="8056,1643 8249,1760 8500,1760 8773,1706 8953,1609 9141,1463 9376,1421 9175,1559 8974,1739 8815,1823 8647,1823 8416,1895 8249,1886 8014,1748 "/>
    <polygon class="fil14" points="7959,4439 8064,3307 8027,3014 5784,2414 4393,2071 3869,2121 1266,2955 1153,3127 1463,4673 1806,6136 1832,6455 4221,7423 4619,7343 2003,6321 1752,4661 1316,3269 2029,3567 3437,3969 1622,3093 4330,2238 7716,3144 6920,3810 6337,4229 7846,3341 7628,4908 "/>
    <polygon class="fil14" points="3923,4108 5134,4447 6094,4296 5315,4858 5176,6057 5176,7306 4858,7226 5030,5637 4808,4615 "/>
    <polygon class="fil14" points="6815,7918 7482,7645 7851,7461 7612,7310 8123,7075 8379,6845 8337,6664 8169,6622 8752,6304 8727,6103 8408,5969 8483,5902 8555,5809 8513,5700 8471,5621 8756,5512 9007,5294 8693,5344 8240,5512 8345,5734 8060,5977 8219,6082 8525,6191 8240,6421 7892,6568 7503,6757 7662,6874 7934,6907 7683,7138 7255,7297 7419,7465 7113,7687 "/>
    <polygon class="fil14" points="625,5751 1211,5524 1144,4967 851,4313 918,3726 557,2909 851,2221 524,1731 788,1274 641,1056 1010,826 1806,939 2716,742 3508,884 4179,591 4799,721 5558,599 6136,721 6962,830 7142,503 6723,293 6136,428 5160,0 4833,327 4082,264 3538,373 2481,197 1765,557 981,130 557,591 0,687 4,1111 264,1471 231,2188 168,2745 461,3399 298,3890 356,4355 666,4782 557,5227 "/>
    <polygon class="fil14" points="696,6459 1341,7255 1144,7775 1375,8299 1350,8764 1832,8919 2687,9049 4116,8890 6593,8856 7716,8567 8626,8735 9435,8366 9271,7616 9728,6568 9628,5034 9892,4087 9896,2900 10185,2024 9892,1601 10152,1111 9732,683 9079,968 8626,557 9204,557 9695,327 10349,360 10705,884 10541,1375 10541,2058 10575,2582 10349,3039 10479,3856 10219,4347 10152,5000 10315,5524 9955,5981 10248,6765 9988,7155 9955,7809 9988,8622 9846,8877 9364,8877 9053,9305 8370,9192 7637,9213 7280,9020 6564,9347 5549,9477 5126,9183 4342,9313 3558,9213 2884,9506 2062,9276 1266,9418 838,9108 926,8567 725,7570 "/>
   </g>
  </g>
 </g>
</svg>
