<?xml version="1.0" encoding="UTF-8"?>
<!DOCTYPE svg PUBLIC "-//W3C//DTD SVG 1.1//EN" "http://www.w3.org/Graphics/SVG/1.1/DTD/svg11.dtd">
<!-- Creator: CorelDRAW -->
<svg xmlns="http://www.w3.org/2000/svg" xml:space="preserve" width="136.373mm" height="102.626mm" version="1.1" style="shape-rendering:geometricPrecision; text-rendering:geometricPrecision; image-rendering:optimizeQuality; fill-rule:evenodd; clip-rule:evenodd"
viewBox="0 0 13637 10263"
 xmlns:xlink="http://www.w3.org/1999/xlink">
 <defs>
  <style type="text/css">
   <![CDATA[
    .fil50 {fill:#BBBB06;fill-rule:nonzero}
    .fil41 {fill:#FDF8E4;fill-rule:nonzero}
    .fil24 {fill:#FFEEA6;fill-rule:nonzero}
    .fil0 {fill:#EED895;fill-rule:nonzero}
    .fil44 {fill:#E1BE4B;fill-rule:nonzero}
    .fil42 {fill:#F0CA3E;fill-rule:nonzero}
    .fil35 {fill:#7B5500;fill-rule:nonzero}
    .fil1 {fill:#FAC7C7;fill-rule:nonzero}
    .fil45 {fill:#FFCC4D;fill-rule:nonzero}
    .fil38 {fill:#612945;fill-rule:nonzero}
    .fil9 {fill:#FFC285;fill-rule:nonzero}
    .fil40 {fill:#FFC0E6;fill-rule:nonzero}
    .fil51 {fill:#CC8500;fill-rule:nonzero}
    .fil3 {fill:#FFA6CC;fill-rule:nonzero}
    .fil28 {fill:#CC7300;fill-rule:nonzero}
    .fil36 {fill:#9F3F00;fill-rule:nonzero}
    .fil31 {fill:#660066;fill-rule:nonzero}
    .fil34 {fill:#8F2262;fill-rule:nonzero}
    .fil48 {fill:#A63467;fill-rule:nonzero}
    .fil32 {fill:#8D1855;fill-rule:nonzero}
    .fil49 {fill:#AE3434;fill-rule:nonzero}
    .fil33 {fill:#B33495;fill-rule:nonzero}
    .fil30 {fill:#FF7327;fill-rule:nonzero}
    .fil39 {fill:#F35050;fill-rule:nonzero}
    .fil11 {fill:#B0061D;fill-rule:nonzero}
    .fil5 {fill:#F3344E;fill-rule:nonzero}
    .fil12 {fill:#CC0D27;fill-rule:nonzero}
    .fil25 {fill:#A60001;fill-rule:nonzero}
    .fil7 {fill:#FF3333;fill-rule:nonzero}
    .fil20 {fill:#EB1F1F;fill-rule:nonzero}
    .fil4 {fill:#D90000;fill-rule:nonzero}
    .fil10 {fill:#CC0000;fill-rule:nonzero}
    .fil46 {fill:#E45A27;fill-rule:nonzero}
    .fil26 {fill:#EC7127;fill-rule:nonzero}
    .fil18 {fill:#4D6101;fill-rule:nonzero}
    .fil14 {fill:#5A7327;fill-rule:nonzero}
    .fil6 {fill:#767834;fill-rule:nonzero}
    .fil52 {fill:#D966FF;fill-rule:nonzero}
    .fil37 {fill:#CC1A00;fill-rule:nonzero}
    .fil21 {fill:#135213;fill-rule:nonzero}
    .fil27 {fill:#AA77BE;fill-rule:nonzero}
    .fil19 {fill:#08574D;fill-rule:nonzero}
    .fil29 {fill:#64B864;fill-rule:nonzero}
    .fil17 {fill:#2F501D;fill-rule:nonzero}
    .fil22 {fill:#0B6E4D;fill-rule:nonzero}
    .fil8 {fill:#006633;fill-rule:nonzero}
    .fil2 {fill:#279AA6;fill-rule:nonzero}
    .fil23 {fill:#2C6C17;fill-rule:nonzero}
    .fil15 {fill:#5BA02A;fill-rule:nonzero}
    .fil13 {fill:#3E5A10;fill-rule:nonzero}
    .fil16 {fill:#224800;fill-rule:nonzero}
    .fil47 {fill:#007373;fill-rule:nonzero}
    .fil43 {fill:black;fill-rule:nonzero}
   ]]>
  </style>
 </defs>
 <g id="Layer_x0020_1">
  <metadata id="CorelCorpID_0Corel-Layer"/>
  <g id="vc100317.ai">
   <g>
    <polygon class="fil0" points="2663,950 9910,845 9805,2938 2866,2879 "/>
    <polygon class="fil1" points="1054,5018 1179,7856 2913,7771 2723,3212 "/>
    <polygon class="fil2" points="829,163 1054,5018 2974,4971 3183,0 "/>
    <polygon class="fil3" points="12513,2467 12539,7123 9720,7143 10400,2617 "/>
    <path class="fil4" d="M11326 4253l29 -2128 -2221 11c0,0 -509,2539 -552,2539 -43,0 2744,-422 2744,-422z"/>
    <polygon class="fil5" points="6640,2148 9134,2136 9031,4120 6696,4050 "/>
    <path class="fil6" d="M8583 4674c24,-20 148,-586 272,-1179 156,5 786,34 1038,187 190,116 293,421 354,735 -750,114 -1621,247 -1664,257 0,1 -1,1 -1,1 -1,0 -1,0 1,-1z"/>
    <polygon class="fil7" points="11315,6217 11326,4253 9021,4193 8698,6520 "/>
    <path class="fil8" d="M9021 4193c0,0 596,16 1182,31 58,219 89,462 110,663 43,420 69,966 69,966 0,0 -78,297 -566,537 -585,68 -1118,130 -1118,130l323 -2327z"/>
    <polygon class="fil9" points="11453,9779 3389,9576 3258,7849 11499,8032 "/>
    <polygon class="fil10" points="8830,8236 11365,8295 11315,6217 8921,6186 "/>
    <polygon class="fil11" points="6683,6105 8921,6186 8830,8236 6806,8250 "/>
    <polygon class="fil12" points="6806,6184 8921,6186 9031,4120 6813,4037 "/>
    <path class="fil13" d="M7308 6248c0,0 -1,-45 -4,-121 662,24 1617,59 1617,59 0,0 -9,191 -20,456 -1003,107 -1593,-394 -1593,-394z"/>
    <path class="fil14" d="M8921 6186c0,0 596,8 1193,15 -185,152 -494,317 -1006,410 -71,13 -140,23 -207,31 11,-265 20,-456 20,-456z"/>
    <path class="fil15" d="M9031 4120c0,0 -1352,-40 -1998,-60 62,-128 169,-290 350,-409 352,-232 1437,-157 1437,-157 0,0 101,2 243,12 -17,342 -32,614 -32,614z"/>
    <path class="fil16" d="M8921 6186c0,0 -990,-1 -1615,-1 -6,-179 -27,-701 -73,-1110 -56,-502 -276,-803 -276,-803 0,0 19,-99 83,-226 565,21 1991,74 1991,74l-110 2066z"/>
    <path class="fil17" d="M6683 6105c0,0 262,9 607,22 -9,209 -26,346 -26,346 0,0 -124,287 -530,529 -27,-472 -51,-897 -51,-897z"/>
    <polygon class="fil10" points="6806,6184 6806,8250 4924,8265 4691,6018 "/>
    <path class="fil18" d="M6806 6184c0,0 0,356 0,773 -275,182 -699,350 -1336,369 0,0 -299,5 -651,-78 -62,-595 -128,-1230 -128,-1230l2115 166z"/>
    <polygon class="fil5" points="4764,6184 6806,6184 6867,4037 4506,4012 "/>
    <path class="fil19" d="M4764 6184c0,0 -249,-2095 -258,-2169 30,0 55,0 55,0l2063 43c0,0 109,30 238,159 -15,516 -56,1967 -56,1967l-2042 0z"/>
    <polygon class="fil4" points="4558,4086 4461,2141 6834,2144 6867,4037 "/>
    <polygon class="fil20" points="4770,6247 2568,6212 2617,8284 4924,8265 "/>
    <polygon class="fil12" points="4770,6247 4608,4012 2522,3967 2568,6212 "/>
    <path class="fil21" d="M4770 6247c0,0 38,503 77,1007 -416,-93 -917,-306 -1083,-793 -26,-76 -47,-153 -64,-231 540,8 1070,17 1070,17z"/>
    <path class="fil22" d="M4770 6247c0,0 -530,-9 -1070,-17 -182,-830 98,-1735 190,-1827 100,-100 495,-388 495,-388l176 0c0,0 17,0 47,1 7,94 162,2231 162,2231z"/>
    <path class="fil23" d="M6806 6184c0,0 5,-1544 6,-2013 127,108 288,314 383,697 114,454 109,993 92,1317 -279,-1 -481,-1 -481,-1z"/>
    <path class="fil24" d="M6869 5056c0,0 144,-427 -37,-646l-220 -189c0,0 -57,-144 -213,-213 -157,-69 -176,-157 -295,-194 -119,-38 -308,37 -308,37 0,0 -169,-188 -376,-113 -207,76 -288,157 -477,132 -188,-25 -520,245 -520,245 0,0 -420,282 -402,646 19,364 339,734 1192,897 853,163 1596,-423 1656,-602z"/>
    <path class="fil24" d="M7396 3845c0,0 -314,251 -163,608 151,358 954,710 1807,571 853,-138 984,-690 978,-884 -6,-195 -245,-320 -245,-320 0,0 25,-182 -113,-245 -137,-62 -238,-69 -238,-69 0,0 -320,-282 -646,-119 0,0 -138,-163 -282,-113 -144,51 -163,94 -163,94 0,0 -251,-25 -389,57 -138,81 -232,263 -232,263l-270 88 -44 69z"/>
    <polygon class="fil25" points="2475,2122 2511,3981 4608,4012 4461,2141 "/>
    <polygon class="fil26" points="76,7076 0,9538 3526,9582 3438,7227 "/>
    <polygon class="fil27" points="10825,5841 10642,10210 12866,10263 12944,5854 "/>
    <polygon class="fil28" points="9491,832 9569,2990 13402,3199 13637,767 "/>
    <path class="fil29" d="M6289 4733c-47,40 -144,56 -69,113 75,56 204,12 238,-57 35,-69 9,-135 -47,-147 -56,-13 -75,50 -122,91z"/>
    <path class="fil29" d="M5301 4247c0,0 69,-44 125,-13 57,31 51,138 -31,163 -81,25 -251,0 -226,-75 25,-75 132,-75 132,-75z"/>
    <path class="fil29" d="M5194 5153c9,28 82,110 157,85 75,-25 19,-188 -57,-220 -75,-31 -118,75 -100,135z"/>
    <path class="fil30" d="M6279 3983c0,0 -106,125 -6,163 101,38 163,-100 163,-100l-157 -63z"/>
    <path class="fil29" d="M4159 4397l-88 188c0,0 101,57 201,-50l-44 -194 -69 56z"/>
    <path class="fil30" d="M4426 5213c0,0 72,131 178,131 107,0 29,-194 -75,-226 -103,-31 -103,95 -103,95z"/>
    <path class="fil30" d="M5897 5150c-44,-7 -213,19 -176,106 38,88 119,82 188,32 70,-50 44,-130 -12,-138z"/>
    <path class="fil30" d="M6850 4955c0,0 -169,-31 -213,69 -44,101 113,182 195,88 81,-94 18,-157 18,-157z"/>
    <path class="fil30" d="M5066 3927c0,0 -3,144 106,109 110,-34 135,-169 135,-169l-241 60z"/>
    <path class="fil30" d="M5956 4485c-94,54 -97,110 -28,141 69,31 235,-66 210,-173 -25,-106 -100,-15 -182,32z"/>
    <path class="fil29" d="M9930 4447c0,0 -176,-53 -248,26 -72,78 101,194 101,194l147 -220z"/>
    <path class="fil30" d="M7597 4128c0,0 -57,40 -13,103 44,63 76,125 132,110 56,-16 69,-138 9,-192 -59,-53 -128,-21 -128,-21z"/>
    <path class="fil29" d="M7910 4911c0,0 44,-138 157,-93 113,43 101,203 101,203l-258 -110z"/>
    <path class="fil29" d="M8287 4328c25,50 12,82 88,116 75,35 103,-72 62,-150 -41,-79 -113,-123 -166,-85 -53,38 4,96 16,119z"/>
    <path class="fil30" d="M8936 4510c-24,13 -85,75 -10,110 76,34 223,-54 207,-107 -15,-53 -106,-53 -197,-3z"/>
    <path class="fil30" d="M8873 4043c-25,34 -44,78 38,100 81,22 179,-78 156,-119 -21,-41 -140,-56 -194,19z"/>
    <path class="fil29" d="M9482 4130c0,0 -142,76 -70,123 73,47 186,-47 182,-125 -3,-79 -112,2 -112,2z"/>
    <path class="fil29" d="M7735 3723c0,0 103,62 159,-10 57,-72 -25,-182 -25,-182l-100 107 -34 85z"/>
    <path class="fil30" d="M8490 3688c0,0 -103,10 -91,66 13,57 76,79 145,31 69,-47 91,-103 44,-125 -48,-22 -98,28 -98,28z"/>
    <path class="fil30" d="M9312 3632c0,0 -100,-113 -6,-198l125 126 -119 72z"/>
    <path class="fil31" d="M2475 2122c0,0 274,2 619,6 -28,647 -57,1328 -79,1861 -291,-4 -504,-8 -504,-8l-36 -1859z"/>
    <path class="fil32" d="M2974 4971c0,0 -181,4 -431,10 -10,-523 -21,-1014 -21,-1014 0,0 208,5 494,11 -25,583 -42,993 -42,993z"/>
    <path class="fil33" d="M11315 6217c0,0 -209,24 -508,59 11,-268 18,-435 18,-435 0,0 207,2 492,3 -1,220 -2,373 -2,373z"/>
    <path class="fil34" d="M11316 8283c0,0 -225,6 -593,-3 33,-782 67,-1608 87,-2070 295,4 505,7 505,7l1 2066z"/>
    <path class="fil35" d="M11355 2125c0,0 -7,466 -14,962 -907,-50 -1772,-97 -1772,-97 0,0 -14,-400 -31,-856 641,-4 1817,-9 1817,-9z"/>
    <path class="fil36" d="M2617 8284c0,0 -13,-559 -26,-1095 486,21 847,38 847,38 0,0 19,506 39,1050 -464,4 -860,7 -860,7z"/>
    <polygon class="fil37" points="1480,2010 1725,2010 1706,1471 1480,1508 "/>
    <path class="fil38" d="M11368 9833l25 -1857c0,0 0,-314 332,-427l0 -1066 314 25 0 1022c0,0 257,164 320,358 62,194 6,1957 6,1957l-997 -12z"/>
    <polygon class="fil12" points="11525,9265 12221,9265 12221,8236 11525,8236 "/>
    <path class="fil39" d="M11863 8776c69,0 124,-89 124,-199 0,-111 -55,-200 -124,-200 -68,0 -124,89 -124,200 0,110 56,199 124,199z"/>
    <path class="fil40" d="M854 7995c0,0 -476,207 -288,683 188,477 1148,609 1700,471 552,-138 721,-514 702,-753 -18,-238 -244,-376 -244,-376l-1870 -25z"/>
    <path class="fil41" d="M720 8471c0,0 -50,-94 37,-232 88,-138 38,-238 88,-332 50,-94 201,-132 201,-132 0,0 113,-144 219,-163 107,-19 132,13 132,13 0,0 182,-151 370,-126 188,25 307,101 307,101 0,0 207,-26 277,87 68,113 313,201 313,201l88 163 -44 232c0,0 94,88 19,214 -76,125 -182,156 -182,156 0,0 50,163 -85,198 -134,34 -216,38 -216,38 0,0 -38,109 -110,125 -72,16 -191,-63 -191,-63 0,0 -119,119 -257,104 -138,-16 -233,-120 -233,-120 0,0 -46,45 -188,10 -141,-35 -222,-188 -222,-188 0,0 -173,-3 -226,-47 -54,-44 -97,-239 -97,-239z"/>
    <path class="fil42" d="M4882 4217c1,0 56,-31 122,-24 64,6 118,60 118,61l79 -76c-8,-9 -83,-84 -186,-94 -102,-10 -184,36 -188,39l55 94z"/>
    <path class="fil42" d="M5356 3989c5,9 52,89 146,111 92,22 181,-29 191,-35 -19,-30 -39,-64 -56,-94 -16,9 -68,32 -110,22 -48,-11 -75,-57 -75,-57l-96 53z"/>
    <path class="fil42" d="M4402 4386c7,53 55,156 188,168 152,14 263,-128 267,-134 -26,-21 -60,-45 -86,-67 -1,1 -79,100 -171,92 -75,-7 -88,-62 -89,-74l-109 15z"/>
    <path class="fil42" d="M4200 4798c21,14 77,62 82,113 2,27 -10,54 -39,83l77 78c66,-66 75,-130 71,-173 -12,-111 -119,-185 -131,-193l-60 92z"/>
    <path class="fil42" d="M5079 4582c22,-9 135,-46 200,88l98 -48c-90,-187 -262,-174 -340,-142l42 102z"/>
    <path class="fil42" d="M5702 4818c35,49 124,97 205,89 126,-13 170,-136 175,-199 -34,-4 -76,-8 -109,-10 0,4 -10,93 -77,100 -42,4 -92,-27 -105,-44l-89 64z"/>
    <path class="fil42" d="M5898 4093c15,1 143,13 143,123l110 0c0,-172 -161,-227 -246,-232l-7 109z"/>
    <path class="fil42" d="M5530 4417c8,6 183,135 354,16l-63 -90c-106,74 -224,-13 -225,-13l-66 87z"/>
    <path class="fil42" d="M5992 5198c5,21 12,82 -16,117 -18,23 -51,34 -99,33l-2 110c84,1 148,-25 187,-76 66,-84 39,-198 36,-211l-106 27z"/>
    <path class="fil42" d="M6328 4313c1,6 12,133 -92,194l56 94c166,-97 146,-291 145,-300l-109 12z"/>
    <path class="fil42" d="M6699 4553c-9,6 -83,64 -94,154 -7,53 11,106 49,154l85 -70c-20,-24 -28,-47 -25,-70 4,-38 38,-71 51,-81l-66 -87z"/>
    <path class="fil42" d="M6352 5007c0,0 31,40 25,85 -3,29 -22,57 -56,84l66 86c59,-44 92,-98 99,-158 10,-91 -43,-159 -50,-166l-84 69z"/>
    <path class="fil42" d="M4674 4662c-16,45 -20,146 78,206 118,70 260,-43 266,-48 -19,-27 -47,-58 -69,-85 -22,18 -98,65 -141,39 -47,-28 -31,-74 -30,-76l-104 -36z"/>
    <path class="fil42" d="M5430 4848c12,16 68,101 -17,164l65 88c50,-38 81,-86 88,-140 14,-93 -42,-170 -48,-178l-88 66z"/>
    <path class="fil42" d="M5069 5011c-10,9 -94,96 -77,199 11,64 56,116 135,153l47 -99c-44,-21 -69,-45 -74,-71 -7,-41 32,-90 46,-104l-77 -78z"/>
    <path class="fil42" d="M5510 5549c12,-9 112,-88 92,-181 -12,-60 -67,-103 -163,-127l-27 106c62,16 81,35 83,43 3,15 -26,52 -51,72l66 87z"/>
    <path class="fil42" d="M4540 5107c25,4 98,23 129,67 15,20 19,42 14,70l108 19c10,-57 -1,-110 -33,-154 -65,-88 -188,-108 -202,-110l-16 108z"/>
    <path class="fil43" d="M4184 5420l-56 -21 -17 57c-49,175 -53,377 -13,699l12 99c36,326 92,819 464,960l39 -102c-310,-118 -358,-553 -394,-870l-12 -101c-33,-267 -35,-450 -4,-597 446,149 1162,152 1192,153l-27 -108c-7,0 -762,-6 -1184,-169z"/>
    <path class="fil43" d="M7241 6212c333,393 1003,567 1789,463 1032,-135 1366,-676 1402,-855 0,-15 0,-30 1,-46 -12,-398 -36,-1228 -202,-1705 -193,-555 -816,-599 -843,-601 -1,33 -7,74 -6,110 5,0 576,42 745,527 160,461 184,1279 196,1672 1,7 1,15 2,22 -26,129 -324,638 -1309,768 -750,98 -1382,-61 -1691,-426l-84 71z"/>
    <path class="fil42" d="M8035 3730c0,0 52,-29 114,-23 50,5 98,43 111,57l79 -76c-8,-9 -80,-80 -179,-90 -97,-10 -172,32 -180,37l55 95z"/>
    <path class="fil42" d="M8482 3512c5,8 50,85 140,106 88,22 174,-27 184,-33 -19,-29 -39,-64 -56,-94 -15,9 -64,30 -103,21 -44,-11 -69,-53 -69,-54l-96 54z"/>
    <path class="fil42" d="M7573 3888c7,51 54,150 182,161 146,14 252,-122 257,-128 -27,-19 -61,-47 -87,-67 -1,1 -75,94 -161,86 -73,-6 -81,-64 -82,-66l-109 14z"/>
    <path class="fil42" d="M7382 4280c20,13 72,57 77,105 2,25 -9,50 -36,77l77 78c64,-64 72,-126 68,-167 -11,-107 -114,-177 -125,-185l-61 92z"/>
    <path class="fil42" d="M8221 4076c21,-9 126,-43 187,81l99 -47c-87,-179 -252,-167 -327,-136l41 102z"/>
    <path class="fil42" d="M8811 4299c34,47 119,92 197,85 123,-12 164,-131 169,-192 -33,-2 -74,-6 -109,-9 0,3 -9,85 -71,92 -39,3 -85,-25 -97,-41l-89 65z"/>
    <path class="fil42" d="M9005 3669c21,1 126,9 138,142l109 -9c-17,-192 -169,-242 -246,-242l-1 109z"/>
    <path class="fil42" d="M8648 3919c7,5 176,128 340,15l-63 -90c-100,69 -210,-12 -211,-13l-66 88z"/>
    <path class="fil42" d="M9086 4658c5,19 11,76 -14,108 -17,21 -48,31 -93,31l-1 110c81,0 142,-24 181,-74 63,-80 37,-190 33,-202l-106 27z"/>
    <path class="fil42" d="M9447 3801c0,5 11,124 -86,181l55 94c159,-92 141,-279 140,-286l-109 11z"/>
    <path class="fil42" d="M9760 4043c-8,6 -80,62 -90,149 -5,35 0,90 48,147l84 -69c-18,-23 -26,-44 -23,-65 5,-41 46,-74 47,-74l-66 -88z"/>
    <path class="fil42" d="M9429 4478c1,0 29,36 24,78 -3,27 -21,53 -53,78l67 87c57,-44 89,-95 95,-154 10,-86 -42,-152 -48,-159l-85 70z"/>
    <path class="fil42" d="M7833 4148c-16,43 -20,141 75,198 91,55 203,-3 256,-45 -21,-26 -48,-57 -68,-85 -27,21 -95,58 -132,36 -37,-22 -32,-55 -28,-68l-103 -36z"/>
    <path class="fil42" d="M8552 4326c16,22 61,95 -15,152l65 88c48,-36 77,-82 85,-134 13,-89 -41,-163 -47,-172l-88 66z"/>
    <path class="fil42" d="M8209 4477c-9,10 -91,93 -74,192 10,61 54,111 130,147l47 -99c-29,-13 -64,-36 -69,-66 -6,-38 32,-85 43,-95l-77 -79z"/>
    <path class="fil42" d="M8632 4993c18,-14 107,-87 89,-175 -12,-58 -65,-100 -158,-123l-27 106c60,15 77,33 78,39 3,13 -25,48 -48,66l66 87z"/>
    <path class="fil42" d="M7707 4574c24,4 93,22 122,62 13,18 17,39 13,65l107 18c10,-55 -1,-106 -32,-147 -62,-85 -181,-105 -194,-107l-16 109z"/>
    <path class="fil43" d="M10013 4798l-4 -18 -16 -69c0,0 -63,32 -63,32 -637,327 -1376,268 -1383,267l-9 109c30,3 731,60 1379,-247 205,895 165,1129 138,1187 -108,232 -463,369 -665,429l31 105c269,-80 614,-230 733,-487 72,-155 24,-595 -141,-1308z"/>
    <path class="fil43" d="M8535 3221c-212,12 -273,216 -275,323 33,1 74,1 110,3 0,-9 8,-208 171,-216 196,-11 287,152 300,196l105 -32c-34,-113 -177,-286 -411,-274z"/>
    <path class="fil43" d="M4652 6303c59,5 1447,110 2202,-658l-78 -76c-720,732 -2101,625 -2115,624l-9 110z"/>
    <path class="fil43" d="M6163 6693c25,-7 615,-182 820,-632l-100 -45c-184,404 -745,570 -750,572l30 105z"/>
    <path class="fil43" d="M7534 5188c10,9 238,241 706,361 462,119 727,86 1034,49l65 -8 -13 -109 -66 8c-295,36 -551,67 -993,-46 -435,-112 -652,-329 -654,-332l-79 77z"/>
    <path class="fil43" d="M9668 5998c-5,1 -554,113 -992,-24l-33 104c466,147 1024,32 1048,28l-23 -108z"/>
    <path class="fil43" d="M7215 5411c9,23 227,583 976,817l33 -104c-699,-219 -905,-747 -907,-752l-102 39z"/>
    <path class="fil43" d="M7138 4498c-227,-515 -832,-611 -857,-615 -5,37 -12,73 -17,109 6,1 571,91 774,550 208,471 220,1597 190,1817 -38,192 -350,728 -1312,855 -1037,137 -1777,-210 -2051,-615 -187,-278 -200,-1528 32,-2049 225,-503 979,-583 986,-583l-10 -109c-34,3 -825,86 -1076,648 -254,569 -232,1844 -22,2154 292,433 1072,806 2155,663 1236,-163 1405,-938 1407,-946 31,-238 21,-1382 -199,-1879z"/>
    <path class="fil43" d="M6620 4141l-58 92c318,199 343,408 333,547 -9,153 -97,303 -251,436 -299,256 -811,408 -1244,370 -461,-41 -1249,-200 -1334,-804 -22,-165 79,-353 239,-437l-52 -97c-197,105 -324,341 -295,549 71,503 579,822 1433,898 467,42 999,-118 1324,-396 178,-152 278,-329 290,-512 17,-262 -109,-474 -385,-646z"/>
    <path class="fil43" d="M6439 3964c-62,-13 -79,-31 -109,-61 -26,-27 -59,-61 -124,-94 -122,-64 -325,-27 -407,-7 -48,-51 -164,-150 -312,-119 -115,25 -161,55 -207,84 -22,14 -43,27 -73,40 -48,21 -114,25 -178,28 -51,2 -99,5 -141,16 -228,56 -335,213 -293,430l108 -21c-32,-161 38,-260 211,-303 33,-8 75,-10 120,-13 71,-3 150,-7 217,-37 38,-16 64,-33 88,-48 41,-26 76,-48 171,-68 124,-27 225,104 226,105l22 30c1,0 36,-10 36,-10 70,-19 270,-58 361,-10 50,26 74,50 97,74 34,35 70,72 164,91 100,21 167,164 146,312l109 15c25,-180 -57,-397 -232,-434z"/>
    <path class="fil43" d="M9779 3750l-55 95c201,118 236,246 225,401 -9,144 -91,285 -237,410 -284,244 -770,388 -1183,352 -438,-39 -1186,-189 -1267,-760 -19,-142 53,-288 185,-373l-59 -92c-168,107 -260,296 -234,480 67,479 552,782 1366,854 446,40 954,-112 1263,-377 169,-145 264,-313 276,-487 10,-161 -14,-347 -280,-503z"/>
    <path class="fil43" d="M9339 3680c1,-1 35,-28 89,-49 87,-33 153,-25 209,29 112,107 55,272 52,279l103 38c4,-10 85,-239 -79,-397 -60,-57 -165,-113 -325,-52 -71,28 -116,65 -118,67l69 85z"/>
    <path class="fil43" d="M9156 3300c-250,-51 -387,48 -392,52 21,27 43,62 64,89 4,-3 108,-74 307,-34 197,40 257,191 258,192l102 -39c-3,-8 -82,-209 -339,-260z"/>
    <path class="fil43" d="M7898 3407c-109,82 -140,139 -162,181 -15,29 -22,40 -50,55 -28,16 -62,23 -99,31 -70,15 -156,33 -208,118 -30,50 -39,104 -26,155 24,95 116,151 126,156 18,-31 36,-62 55,-95 -17,-10 -64,-45 -75,-89 -6,-22 -1,-45 14,-70 26,-43 69,-53 136,-68 43,-9 88,-18 130,-41 56,-31 75,-66 93,-100 19,-35 42,-78 132,-145 152,-115 366,-47 368,-47l34 -104c-10,-3 -270,-87 -468,63z"/>
    <path class="fil43" d="M2430 413c-155,-121 -327,-21 -334,-17l-26 16 -1 30 -110 3553 -2 52 52 4 142 11 55 4 3 -55 242 -3551 2 -30 -23 -17z"/>
    <path class="fil44" d="M2104 3948l-34 -2 108 -3467c34,-14 99,-29 161,5l-235 3464z"/>
    <path class="fil43" d="M1853 4486l-101 -3478 -1 -33 -30 -14c-212,-101 -329,29 -334,35l-14 17 1 23 235 3463 4 54 54 -3 134 -8 54 -3 -2 -53z"/>
    <path class="fil44" d="M1486 1056c23,-17 75,-39 158,-9l98 3388 -27 2 -229 -3381z"/>
    <path class="fil43" d="M13103 1394c-42,-93 -145,-161 -304,-205 -300,-82 -505,-46 -667,0 -58,16 -102,41 -140,63 -78,43 -110,62 -207,-9 -211,-155 -422,-159 -707,-12 -135,69 -175,45 -265,-7 -21,-13 -45,-27 -73,-41 -112,-56 -393,-124 -658,25 -139,78 -201,272 -179,406 17,103 79,172 170,189 101,19 178,-7 253,-32 92,-31 171,-58 296,-9 253,99 395,145 618,21 131,-73 198,-41 299,7 29,13 58,27 91,39 162,61 312,50 556,-43 188,-71 358,-7 482,40l33 13c163,59 321,-67 394,-223 36,-78 39,-155 8,-222z"/>
    <path class="fil8" d="M12996 1569c-50,108 -158,203 -257,167 0,0 -32,-12 -32,-12 -133,-50 -333,-126 -560,-40 -218,82 -343,93 -478,43 -29,-11 -57,-24 -83,-37 -108,-50 -220,-103 -399,-3 -174,97 -271,73 -524,-26 -164,-65 -274,-27 -372,6 -67,22 -125,42 -198,28 -45,-8 -73,-42 -82,-99 -16,-96 32,-240 124,-292 233,-131 480,-61 556,-23 25,13 46,25 67,37 98,57 182,107 370,11 287,-148 445,-106 592,2 154,113 241,64 326,16 34,-20 70,-40 116,-53 155,-43 335,-74 608,1 125,34 206,84 234,145 17,37 14,81 -8,129z"/>
    <path class="fil43" d="M12900 2119c-41,-47 -122,-96 -277,-54 -139,36 -211,17 -302,-9 -85,-23 -182,-50 -345,-41 -173,10 -260,62 -330,103 -75,45 -129,76 -271,59 -144,-18 -210,-47 -286,-80 -79,-34 -168,-73 -350,-100 -228,-35 -565,6 -734,133 -70,54 -93,148 -62,257 42,149 184,317 366,335 116,11 209,-24 291,-55 100,-38 179,-69 286,-12 1,0 48,24 48,24 198,106 355,189 700,86 54,-16 101,-31 143,-45 225,-72 293,-94 530,3 321,132 476,84 593,-181 60,-135 91,-317 0,-423z"/>
    <path class="fil8" d="M12799 2498c-84,193 -165,241 -451,123 -273,-111 -370,-80 -605,-5 -41,13 -88,28 -141,44 -301,90 -420,27 -617,-77l-47 -26c-151,-79 -272,-33 -378,7 -77,30 -150,58 -240,49 -127,-13 -240,-143 -272,-256 -8,-30 -23,-104 23,-139 140,-105 450,-143 652,-113 168,25 246,60 322,92 77,34 157,69 317,89 179,22 261,-26 340,-73 66,-40 134,-80 280,-88 145,-8 229,15 310,37 99,27 192,53 359,9 55,-15 129,-24 166,20 46,53 39,180 -18,307z"/>
    <polygon class="fil43" points="11766,7603 11767,6443 11658,6443 11657,7603 "/>
    <polygon class="fil43" points="12085,7594 12086,6487 11976,6486 11976,7594 "/>
    <path class="fil43" d="M11982 7507l-8 109c187,15 339,212 339,441l0 1719 -882 -4 0 -1720c0,-226 184,-426 334,-432l-3 -109c-227,8 -440,271 -440,541 0,0 -1,1775 -1,1775l0 54 55 1 991 4 55 0 0 -55 0 -1774c0,-289 -193,-531 -440,-550z"/>
    <path class="fil43" d="M12023 6173l-291 0c-87,0 -158,71 -158,158l0 51c0,87 71,158 158,158l291 0c87,0 158,-71 158,-158l0 -51c0,-87 -71,-158 -158,-158z"/>
    <path class="fil39" d="M12072 6382c0,27 -22,48 -49,48l-291 0c-26,0 -48,-21 -48,-48l0 -51c0,-27 22,-48 48,-48l291 0c27,0 49,21 49,48l0 51z"/>
    <polygon class="fil43" points="11517,8282 12226,8282 12226,8172 11517,8172 "/>
    <polygon class="fil43" points="11523,9336 12228,9336 12228,9227 11523,9226 "/>
    <polygon class="fil43" points="11667,8927 12095,8927 "/>
    <polygon class="fil43" points="11667,8945 12095,8945 12095,8908 11667,8908 "/>
    <polygon class="fil43" points="11667,9052 12095,9052 "/>
    <polygon class="fil43" points="11667,9070 12095,9070 12095,9034 11667,9034 "/>
    <path class="fil45" d="M1498 8140c-9,9 -85,90 -59,182 19,64 81,108 185,132l25 -107c-59,-14 -98,-35 -105,-56 -7,-25 22,-63 33,-74l-79 -77z"/>
    <path class="fil45" d="M1730 8739c10,-15 108,-145 312,-14l60 -92c-301,-193 -462,43 -464,46l92 60z"/>
    <path class="fil45" d="M1802 8218c19,3 117,24 113,142l109 4c7,-177 -132,-244 -206,-255l-16 109z"/>
    <path class="fil45" d="M2340 7896c-13,2 -126,21 -162,109 -24,58 -6,126 51,201l87 -67c-31,-40 -44,-74 -36,-93 9,-24 56,-39 76,-42l-16 -108z"/>
    <path class="fil45" d="M1736 7789c0,0 8,46 -15,79 -16,21 -43,34 -82,39l15 109c70,-9 123,-38 156,-86 51,-71 35,-154 33,-164l-107 23z"/>
    <path class="fil43" d="M1516 8838c-3,4 -56,80 -166,102 -103,20 -184,-92 -201,-133 -26,-66 -73,-74 -128,-82 -30,-5 -68,-11 -122,-27 -105,-31 -84,-161 -83,-167l-109 -18c-13,80 3,244 162,290 60,18 103,25 135,30 16,3 35,5 40,8 1,1 2,3 3,7 31,77 155,232 324,199 157,-30 233,-143 236,-148l-91 -61z"/>
    <path class="fil43" d="M1891 8917c-3,4 -69,91 -196,96 -130,5 -245,-102 -246,-103l-76 79c6,6 149,141 326,133 182,-6 277,-135 281,-140l-89 -65z"/>
    <path class="fil43" d="M2225 8786c0,5 -3,126 -104,162 -81,29 -188,-86 -219,-129l-89 65c7,9 169,231 346,167 173,-63 175,-257 175,-265l-109 0z"/>
    <path class="fil43" d="M2821 8364c-16,-219 -280,-300 -291,-303 -9,32 -21,70 -32,104 2,1 203,64 213,207 4,53 -11,96 -45,128 -35,34 -75,42 -86,41 -21,23 -49,45 -71,68 19,62 16,110 -10,145 -38,54 -132,88 -259,93l5 110c115,-5 269,-33 344,-139 34,-49 48,-107 40,-174 27,-8 56,-21 82,-40 46,-32 120,-105 110,-240z"/>
    <path class="fil43" d="M2725 7887c-74,-83 -130,-102 -176,-118 -43,-15 -76,-26 -131,-96 -96,-121 -274,-202 -386,-128 -101,65 -54,201 -10,270 31,-19 62,-39 93,-57 -18,-29 -49,-104 -23,-121 47,-31 166,11 240,104 75,95 131,115 182,132 40,14 75,26 129,87 108,120 23,303 22,305l99 46c5,-10 116,-251 -39,-424z"/>
    <path class="fil43" d="M1681 7439c-309,33 -350,177 -353,193 33,9 71,18 106,27 0,-1 32,-87 259,-111 248,-26 374,87 379,92l75 -80c-7,-6 -165,-153 -466,-121z"/>
    <path class="fil43" d="M1179 7602c-80,27 -134,74 -159,139 -45,111 17,230 20,235 31,-17 66,-36 97,-52 -1,0 -41,-80 -16,-143 14,-34 45,-59 94,-76 159,-54 356,52 358,53l52 -96c-9,-6 -240,-131 -446,-60z"/>
    <path class="fil43" d="M799 8501c-21,-14 -49,-39 -55,-78 -9,-63 27,-119 61,-173 17,-26 32,-50 44,-76 17,-39 21,-76 24,-112 4,-48 8,-89 43,-130 57,-68 165,-69 166,-69l-1 -110c-6,0 -159,1 -249,108 -57,68 -63,136 -68,191 -3,30 -6,56 -15,77 -8,18 -22,40 -36,62 -41,65 -92,145 -77,247 9,63 46,118 104,155 71,46 164,59 247,35l-30 -105c-52,15 -113,7 -158,-22z"/>
    <path class="fil43" d="M811 7914c-227,115 -368,333 -368,570 0,447 575,811 1281,811 706,0 1281,-364 1281,-811 0,-202 -78,-355 -238,-466l-63 90c131,91 191,210 191,376 0,387 -525,701 -1171,701 -646,0 -1171,-314 -1171,-701 0,-195 118,-376 308,-472l-50 -98z"/>
    <path class="fil45" d="M1306 7893c1,1 33,89 -10,136 -32,35 -124,16 -161,3l-38 103c19,7 190,66 280,-32 91,-99 34,-245 31,-251l-102 41z"/>
    <path class="fil45" d="M887 8332c5,3 115,66 246,77l10 -109c-107,-9 -200,-62 -201,-63l-55 95z"/>
    <path class="fil45" d="M1221 8560c2,0 136,66 113,163l107 26c44,-184 -164,-284 -173,-288l-47 99z"/>
    <polygon class="fil46" points="2943,144 2623,181 2635,290 2892,260 2868,892 2978,896 3004,200 3007,137 "/>
    <polygon class="fil46" points="1749,347 1739,237 1043,300 990,305 993,358 1012,690 1121,684 1105,405 "/>
    <polygon class="fil46" points="1018,915 1043,1524 1153,1519 1127,911 "/>
    <polygon class="fil47" points="12860,1012 13462,1006 13461,896 12859,902 "/>
    <polygon class="fil47" points="13225,2212 13150,2971 13259,2982 13334,2223 "/>
    <polygon class="fil47" points="10132,1037 10129,927 9709,940 9654,942 9656,997 9681,1718 9791,1714 9767,1048 "/>
    <polygon class="fil48" points="12740,5989 12414,5989 12414,6099 12684,6099 12660,6889 12770,6893 12795,6046 12797,5989 "/>
    <polygon class="fil48" points="12604,9249 12598,10001 12707,10002 12713,9250 "/>
    <polygon class="fil48" points="12623,8350 12604,8840 12713,8844 12732,8354 "/>
    <polygon class="fil48" points="10982,9973 11014,9271 10904,9266 10873,9968 "/>
    <polygon class="fil49" points="887,7256 285,7233 229,7231 229,7288 228,7631 337,7631 338,7345 883,7366 "/>
    <polygon class="fil49" points="202,7849 184,8338 294,8342 312,7852 "/>
    <polygon class="fil49" points="187,9392 840,9404 842,9295 189,9282 "/>
    <polygon class="fil49" points="2577,9417 3340,9427 3341,9317 2579,9307 "/>
    <polygon class="fil50" points="3305,1927 4973,1952 4975,1843 3307,1818 "/>
    <polygon class="fil51" points="10269,8492 8350,8467 8348,8576 10268,8601 "/>
    <polygon class="fil52" points="11569,3314 11544,4424 11653,4427 11679,3316 "/>
    <path class="fil37" d="M1516 1502c38,-6 98,-16 140,-23 5,151 9,333 15,531 -35,0 -82,0 -121,0 -13,-188 -24,-361 -34,-508z"/>
    <path class="fil43" d="M1481 1591c3,-2 75,-61 212,-27l26 -107c-140,-35 -243,5 -292,38l54 96z"/>
    <path class="fil43" d="M1528 2088c3,-2 78,-54 167,-22l37 -104c-144,-51 -263,33 -268,36l64 90z"/>
    <path class="fil37" d="M2281 1347c-37,1 -90,2 -130,3 5,-184 10,-352 15,-489 43,-1 105,-3 148,-4 -9,137 -21,304 -33,490z"/>
    <path class="fil43" d="M2137 938c2,0 139,-55 197,9l81 -73c-111,-124 -312,-40 -321,-37l43 101z"/>
    <path class="fil43" d="M2103 1415c36,-15 148,-47 190,2l83 -72c-102,-118 -307,-35 -316,-31l43 101z"/>
    <polygon class="fil46" points="1212,4708 2001,4710 2004,4819 1210,4819 "/>
    <path class="fil43" d="M12793 1480c-153,-92 -357,-120 -491,-107 -109,9 -194,49 -269,84 -73,34 -131,60 -187,51 -52,-9 -94,-34 -143,-63 -68,-42 -146,-89 -263,-92 -107,-3 -175,35 -235,68 -54,29 -104,57 -185,60 -105,4 -135,-7 -260,-55l-33 -12c-72,-28 -290,-109 -523,12l50 97c190,-98 367,-32 434,-7 0,0 33,13 33,13 131,50 176,67 303,62 106,-4 174,-41 233,-74 56,-30 103,-57 180,-54 88,2 147,37 209,75 54,33 109,66 182,78 90,15 168,-21 251,-60 71,-32 143,-66 233,-74 113,-11 294,13 425,92l56 -94z"/>
    <path class="fil43" d="M10340 2399c2,-2 301,-152 558,-28 322,155 650,182 856,70 177,-97 416,-97 732,-1l32 -105c-345,-105 -612,-102 -817,9 -172,94 -469,66 -755,-72 -308,-148 -643,22 -657,29l51 98z"/>
    <path class="fil45" d="M2297 8506c0,0 45,-57 99,-64 53,-8 102,23 107,31l54 -96c0,0 -73,-61 -181,-41 -109,21 -161,104 -161,104l82 66z"/>
    <path class="fil43" d="M7911 3411c-29,4 -722,114 -943,676 -25,63 -44,176 -32,268l109 -14c-10,-78 8,-172 25,-214 174,-443 702,-576 829,-602 4,-38 8,-77 12,-114z"/>
    <path class="fil43" d="M4706 3961c-13,2 -321,55 -469,273 -63,90 -63,171 -53,223 15,75 60,128 96,152l60 -92c-18,-12 -41,-42 -48,-82 -10,-45 2,-92 35,-139 122,-179 394,-226 396,-226 -6,-37 -12,-73 -17,-109z"/>
   </g>
  </g>
 </g>
</svg>
