<?xml version="1.0" encoding="UTF-8"?>
<!DOCTYPE svg PUBLIC "-//W3C//DTD SVG 1.1//EN" "http://www.w3.org/Graphics/SVG/1.1/DTD/svg11.dtd">
<!-- Creator: CorelDRAW -->
<svg xmlns="http://www.w3.org/2000/svg" xml:space="preserve" width="159.826mm" height="101.339mm" version="1.1" style="shape-rendering:geometricPrecision; text-rendering:geometricPrecision; image-rendering:optimizeQuality; fill-rule:evenodd; clip-rule:evenodd"
viewBox="0 0 15983 10134"
 xmlns:xlink="http://www.w3.org/1999/xlink">
 <defs>
  <style type="text/css">
   <![CDATA[
    .fil2 {fill:#FFF3CC;fill-rule:nonzero}
    .fil3 {fill:#FFCC80;fill-rule:nonzero}
    .fil4 {fill:#FFA64D;fill-rule:nonzero}
    .fil0 {fill:#D9D9FF;fill-rule:nonzero}
    .fil1 {fill:#B9B9E6;fill-rule:nonzero}
    .fil6 {fill:black;fill-rule:nonzero}
    .fil5 {fill:white;fill-rule:nonzero}
   ]]>
  </style>
 </defs>
 <g id="Layer_x0020_1">
  <metadata id="CorelCorpID_0Corel-Layer"/>
  <g id="vc108886.ai">
   <g>
    <path class="fil0" d="M10849 3334c445,-1003 1476,-1225 1921,-1337 446,-111 2005,-195 2339,-250 334,-56 390,-112 585,-84 113,16 188,60 226,122 12,19 20,40 25,61 6,30 6,62 -1,95 -28,140 -194,530 -194,530 0,0 35,142 37,287 0,77 -9,156 -37,214 -84,167 -474,668 -474,668 0,0 28,557 -111,808 -140,250 -571,391 -571,391 0,0 -335,473 -502,556 -167,84 -835,223 -1503,196 -668,-28 -1462,-58 -1573,-30 -111,28 -362,56 -362,56l-250 -1949 445 -334z"/>
    <path class="fil1" d="M116 897c640,390 1197,-56 1754,-306 485,-219 1287,-479 1688,-488 59,-1 110,4 149,14 64,18 138,59 216,118 297,221 660,682 815,968 194,362 890,947 974,1086 84,139 84,1587 0,1921 -84,334 -585,501 -752,585 -167,84 -668,84 -807,56 -139,-28 -836,-140 -836,-140l-278 -389 -612 83 -418 -251 -334 -389c0,0 -362,-112 -502,-167 -139,-56 -361,-112 -417,-307 -56,-195 -112,-640 -112,-640 0,0 -473,-279 -528,-529 -19,-82 -19,-164 -11,-238 16,-150 66,-263 66,-263 0,0 -111,28 -139,-334 -2,-25 -3,-49 -4,-71 -9,-295 88,-319 88,-319z"/>
    <path class="fil2" d="M5601 2303l2756 -1169 2395 1057 -1002 2172c0,0 -2757,362 -2896,446 -139,83 -1253,-2506 -1253,-2506z"/>
    <polygon class="fil3" points="8399,4057 7912,10016 10612,6897 10752,2359 "/>
    <polygon class="fil4" points="5462,2359 4543,7454 8079,9793 8413,3890 5628,2247 "/>
    <path class="fil0" d="M3247 342c122,4 237,30 345,71 507,196 875,745 1242,1181 0,112 -56,557 -83,641 -864,111 -947,-1309 -1810,-1197 -112,-28 -251,-56 -362,-56 -28,-112 -56,-195 -84,-279 195,-278 501,-278 752,-361z"/>
    <path class="fil0" d="M2857 2569c28,0 251,167 334,250 -306,613 -1308,641 -1893,502 -56,-84 -111,-167 -167,-251 473,-306 1058,-223 1559,-473 56,0 112,-28 167,-28z"/>
    <path class="fil0" d="M3664 3460c56,0 251,167 335,251 -279,417 -863,417 -1281,389 -84,-83 -139,-139 -223,-223 279,-501 808,-166 1169,-417z"/>
    <path class="fil0" d="M1883 898c584,334 -362,780 -669,780 -139,0 -584,-112 -668,-139 28,-112 84,-195 111,-279 418,-83 864,-139 1226,-362z"/>
    <path class="fil0" d="M1827 1873c585,306 -279,807 -640,640 -140,0 -808,-306 -251,-473 251,-111 640,0 891,-167z"/>
    <path class="fil0" d="M3470 676c556,417 1336,974 1615,1642 0,362 167,1253 -502,1086 -946,-445 -891,-1503 -1280,-2255 0,-139 139,-446 167,-473z"/>
    <path class="fil5" d="M14747 2068c557,195 -112,919 -473,891 -390,112 -1142,112 -1059,724 28,640 -501,1253 -1197,974 -473,168 -1114,-83 -863,-696 167,-1030 1225,-1893 2311,-1615 418,-111 863,-111 1281,-278z"/>
    <path class="fil5" d="M15109 3154c306,56 83,460 -112,529 -376,306 -835,376 -1294,390 -56,-14 -112,-42 -167,-56 14,-42 27,-97 42,-139 500,-264 1057,-334 1531,-724z"/>
    <path class="fil5" d="M14955 4101c321,69 98,487 -139,473 -167,70 -389,83 -570,42 0,-42 0,-98 13,-140 237,-97 474,-194 696,-375z"/>
    <path class="fil6" d="M8109 9652c795,-1028 1185,-1575 2181,-2433 146,-126 343,86 196,212 -979,843 -1640,1643 -2422,2654 -7,9 -12,14 -18,17 -16,9 -25,-5 -29,-35 -13,-94 29,-333 92,-415z"/>
    <path class="fil6" d="M4716 7430c1247,900 1899,1378 3169,2179 72,46 101,145 99,242 -3,95 -35,188 -87,227 -30,22 -67,26 -109,0 -1278,-806 -1953,-1569 -3208,-2475 -120,-86 15,-260 136,-173z"/>
    <path class="fil6" d="M8458 3893l-295 5871c-7,118 13,63 -13,180 -26,120 -155,189 -257,190 -83,1 -149,-43 -128,-141 22,-97 38,-150 43,-248l521 -5841c-8,-83 122,-94 129,-11z"/>
    <path class="fil6" d="M10877 2309c-109,1893 191,3011 -197,4889 -47,229 -404,161 -357,-68 384,-1861 293,-2946 401,-4821 7,-122 160,-122 153,0z"/>
    <path class="fil6" d="M5541 2228c1333,591 1740,894 2998,1581 181,99 97,420 -84,322 -1252,-684 -1671,-1141 -2998,-1729 -121,-54 -37,-228 84,-174z"/>
    <path class="fil6" d="M157 1398c106,416 733,376 1165,282 655,-144 984,-446 1657,-453 208,-1 212,299 4,301 -648,6 -962,306 -1592,445 -519,113 -1131,-35 -1319,-492 -13,-32 -24,-65 -33,-100 -11,-43 -2,-69 15,-77 30,-16 84,19 103,94z"/>
    <path class="fil6" d="M804 3101c223,496 811,612 1317,427 599,-223 991,-448 1634,-317 192,39 131,317 -61,278 -577,-119 -923,119 -1461,320 -614,224 -1270,-60 -1540,-662 -32,-71 79,-118 111,-46z"/>
    <path class="fil6" d="M1889 3776c81,492 634,451 1053,350 555,-135 902,-18 1471,18 170,10 156,302 -14,292 -544,-35 -875,-162 -1405,-32 -517,125 -1148,10 -1249,-597 -18,-109 126,-141 144,-31z"/>
    <path class="fil6" d="M3207 4263c50,260 334,312 600,326 442,23 688,54 1126,137 205,38 144,333 -60,294 -421,-79 -659,-92 -1084,-115 -377,-20 -665,-247 -736,-614 -18,-99 135,-126 154,-28z"/>
    <path class="fil6" d="M15977 1814c5,56 7,109 5,162 -23,592 -499,967 -1081,1245 -405,194 -687,233 -1132,347 -212,54 -297,-253 -85,-307 420,-107 681,-156 1063,-339 530,-254 1154,-520 1100,-1095 -13,-139 117,-152 130,-13z"/>
    <path class="fil6" d="M15839 2539c21,89 30,176 29,259 -1,88 -14,173 -37,255 -128,450 -569,794 -1072,1036 -346,161 -589,227 -950,344 -192,62 -289,-214 -97,-277 347,-112 565,-205 898,-359 500,-241 1094,-559 1141,-1034 6,-67 2,-138 -16,-213 -30,-130 73,-142 104,-11z"/>
    <path class="fil6" d="M15315 3750c81,506 -144,1029 -753,1122 -426,51 -659,18 -1080,-2 -42,-1 -62,-8 -103,-10 -178,-8 -163,-231 15,-222 41,1 62,-3 103,-1 400,18 615,52 1020,4 486,-74 707,-469 642,-874 -14,-87 143,-104 156,-17z"/>
    <path class="fil6" d="M10668 5646c413,-555 867,-259 1656,-174 525,56 896,229 1378,69 133,-44 213,-86 320,-158 65,-45 153,30 88,75 -129,88 -66,260 -227,313 -539,179 -1013,-34 -1601,-97 -694,-75 -1112,-196 -1475,292 -57,76 -196,-244 -139,-320z"/>
    <path class="fil6" d="M287 1989c441,857 1402,662 2152,256 302,-180 496,-242 831,-377 85,-34 139,89 54,123 -326,132 -454,301 -748,476 -860,477 -1945,616 -2468,-392 -59,-115 119,-201 179,-86z"/>
    <path class="fil6" d="M5074 6766c307,210 838,483 838,483 0,0 192,-327 -204,-674 -377,-339 -634,191 -634,191z"/>
    <path class="fil6" d="M6845 7050c71,771 339,834 471,745 131,-90 202,-493 202,-493l-673 -252z"/>
    <path class="fil6" d="M7083 7689c8,297 -95,806 -95,806 0,0 -263,73 -186,170 78,97 527,405 518,334 -8,-71 -130,-394 -150,-450 -20,-57 84,-837 84,-837l-171 -23z"/>
    <path class="fil6" d="M5427 6865c-17,353 -63,544 -114,519 -51,-24 -102,-130 -102,-130 0,0 -87,85 -49,164 38,79 52,199 204,140 152,-61 209,-634 209,-634l-148 -59z"/>
    <path class="fil6" d="M6154 6946c-17,112 -231,1029 -214,1097 16,68 122,65 122,65 0,0 219,-947 208,-1099 -12,-152 -116,-63 -116,-63z"/>
    <path class="fil6" d="M6492 7137c-25,155 -267,1037 -221,1132 47,96 114,109 137,53 23,-56 164,-853 186,-1022 22,-169 -102,-163 -102,-163z"/>
    <path class="fil6" d="M5579 2286c-325,1737 -659,3506 -985,5251 -31,72 -143,27 -112,-45 285,-1741 577,-3482 872,-5218 8,-145 233,-133 225,12z"/>
    <path class="fil6" d="M5584 2167l2606 -1061c161,-17 188,215 26,232l-2518 1006c-123,74 -237,-104 -114,-177z"/>
    <path class="fil6" d="M8387 4040c792,-713 1575,-1063 2350,-1864 59,52 73,224 125,281 -775,799 -1502,964 -2342,1726 -99,85 -232,-58 -133,-143z"/>
    <path class="fil6" d="M8375 1087c816,352 1638,714 2459,1063 167,46 0,274 -167,227 -807,-375 -1615,-763 -2420,-1142 -102,-82 25,-230 128,-148z"/>
    <path class="fil6" d="M10765 3408c571,-2010 3647,-1411 4865,-1913 175,-73 289,180 114,253 -1123,458 -4283,-85 -4965,1874 -52,147 -57,-64 -14,-214z"/>
    <path class="fil6" d="M131 850c724,398 1274,-187 2001,-556 453,-205 829,-296 1153,-294 1033,6 1545,953 2372,2148 126,181 -111,409 -236,228 -796,-1145 -1156,-2084 -2148,-2063 -277,6 -604,87 -1002,259 -797,404 -1433,859 -2226,423 -23,-13 -36,-30 -42,-48 -7,-23 -2,-47 10,-67 22,-36 68,-58 118,-30z"/>
    <path class="fil6" d="M7166 1696c919,613 1637,764 2621,1305 160,88 22,320 -138,232 -1004,-551 -1786,-719 -2622,-1439 -129,-112 -3,-192 139,-98z"/>
    <path class="fil6" d="M14747 4583c-345,753 -1149,727 -1839,545 -294,-74 -376,-130 -695,-164 -82,-8 -187,117 -106,126 307,35 457,124 737,200 775,231 1650,220 2066,-672 54,-107 -111,-141 -163,-35z"/>
    <path class="fil2" d="M9888 3544c1114,502 167,2117 390,3119 0,668 -780,1003 -1226,1392 -166,-55 -389,-167 -556,-223 167,-1503 -390,-3619 1392,-4288z"/>
   </g>
  </g>
 </g>
</svg>
