<?xml version="1.0" encoding="UTF-8"?>
<!DOCTYPE svg PUBLIC "-//W3C//DTD SVG 1.1//EN" "http://www.w3.org/Graphics/SVG/1.1/DTD/svg11.dtd">
<!-- Creator: CorelDRAW -->
<svg xmlns="http://www.w3.org/2000/svg" xml:space="preserve" width="152.09mm" height="101.489mm" version="1.1" style="shape-rendering:geometricPrecision; text-rendering:geometricPrecision; image-rendering:optimizeQuality; fill-rule:evenodd; clip-rule:evenodd"
viewBox="0 0 15209 10149"
 xmlns:xlink="http://www.w3.org/1999/xlink">
 <defs>
  <style type="text/css">
   <![CDATA[
    .fil18 {fill:#999976;fill-rule:nonzero}
    .fil17 {fill:#CCCC9C;fill-rule:nonzero}
    .fil8 {fill:#FFFFC2;fill-rule:nonzero}
    .fil7 {fill:#E6B380;fill-rule:nonzero}
    .fil9 {fill:#FFCC80;fill-rule:nonzero}
    .fil15 {fill:#FFA64D;fill-rule:nonzero}
    .fil19 {fill:#B34D1A;fill-rule:nonzero}
    .fil16 {fill:#E68034;fill-rule:nonzero}
    .fil3 {fill:#9CB367;fill-rule:nonzero}
    .fil11 {fill:#B3DF95;fill-rule:nonzero}
    .fil14 {fill:#7EB81A;fill-rule:nonzero}
    .fil12 {fill:#6F924E;fill-rule:nonzero}
    .fil10 {fill:#5B7E3A;fill-rule:nonzero}
    .fil13 {fill:#2F501D;fill-rule:nonzero}
    .fil5 {fill:#183C00;fill-rule:nonzero}
    .fil0 {fill:#8DA4F8;fill-rule:nonzero}
    .fil2 {fill:#5F76CA;fill-rule:nonzero}
    .fil1 {fill:#01186C;fill-rule:nonzero}
    .fil6 {fill:#006C00;fill-rule:nonzero}
    .fil4 {fill:#005200;fill-rule:nonzero}
   ]]>
  </style>
 </defs>
 <g id="Layer_x0020_1">
  <metadata id="CorelCorpID_0Corel-Layer"/>
  <g id="vc107776.ai">
   <g>
    <path class="fil0" d="M4 5419c0,0 943,-77 2315,-190 -647,625 -929,1451 -1021,1781 -576,-290 -1011,-538 -1070,-653 -97,-190 -155,-449 -187,-647 -28,-167 -37,-291 -37,-291z"/>
    <path class="fil0" d="M1731 7222c99,-974 545,-1614 1040,-2030 3749,-308 9979,-819 9979,-819 0,0 -45,872 -135,1111 -89,240 -806,1178 -1074,1527 -18,23 -42,54 -71,93 -1118,312 -3650,787 -6547,-199 0,0 3099,1446 6164,705 -624,816 -1674,2139 -2123,2300 -144,52 -437,15 -806,-76 156,-408 509,-1327 509,-1327l-832 1185c0,0 -103,-435 -104,-436 0,0 0,0 0,0 0,0 0,0 0,0 0,0 -82,231 -148,416 -1157,-362 -2632,-988 -3009,-1157 -343,-154 -1727,-754 -2843,-1293z"/>
    <path class="fil1" d="M194 5533c-22,-523 4055,-4469 4637,-4382 181,27 1015,301 2079,682 -152,444 -489,1431 -489,1431 0,0 614,-915 869,-1294 2347,852 5500,2109 5471,2452 -24,276 -903,1605 -1840,2818 -1283,280 -3506,514 -5998,-335 0,0 2743,1280 5620,814 -713,881 -1396,1605 -1702,1657 -83,14 -249,-12 -480,-72 151,-392 306,-797 306,-797 0,0 -282,402 -518,738 -1394,-407 -4413,-1659 -6305,-2619 535,-1877 2496,-2176 2496,-2176 -1680,-28 -2489,1187 -2841,1997 -780,-412 -1298,-751 -1305,-914z"/>
    <path class="fil2" d="M3980 1593c0,0 1278,602 2515,1455 -45,131 -74,216 -74,216 0,0 48,-71 122,-182 1003,697 1967,1557 2186,2392 194,736 33,1440 -234,2022 -1056,-1 -2278,-150 -3572,-591 0,0 1492,696 3429,875 -406,741 -933,1226 -933,1226 0,0 -3435,-1104 -5625,-2180 447,-2056 2546,-2376 2546,-2376 -1818,-30 -2616,1394 -2919,2187 -757,-398 -1302,-784 -1392,-1098 -20,-69 -18,-135 8,-196 493,-1134 3943,-3750 3943,-3750z"/>
    <path class="fil3" d="M2564 3147c0,0 2425,-476 3114,751 534,950 127,2276 -414,3117 -113,-35 -227,-71 -341,-110 0,0 115,54 324,136 -153,233 -316,428 -472,564 -713,627 -1855,1078 -1855,1078 0,0 262,-1303 -118,-1779 -167,-208 -493,-417 -805,-695 681,-1504 2343,-1758 2344,-1758 0,0 0,0 0,0 0,0 0,0 0,0 -1367,-23 -2158,777 -2594,1513 -294,-324 -525,-739 -514,-1314 23,-1303 1331,-1503 1331,-1503z"/>
    <path class="fil4" d="M2946 8693c0,0 426,-551 697,-1051 270,-499 104,-1227 104,-1227 0,0 0,0 0,0 0,0 0,0 0,0 0,0 977,-21 1185,167 68,122 135,248 203,371l-221 -74 24 78c0,0 195,80 222,91 12,103 0,192 -40,241 -104,125 -624,666 -957,811 -333,146 -1217,593 -1217,593z"/>
    <path class="fil5" d="M2852 5417l-582 873c0,0 520,-332 561,-416 42,-83 21,-457 21,-457z"/>
    <path class="fil6" d="M3039 2919c0,0 -357,-1429 280,-2159 395,-453 826,-661 1123,-731 96,-23 179,-31 241,-28 28,1 53,4 72,10 17,5 31,11 40,19 108,93 93,295 -125,342 -217,46 -1149,186 -1382,792 -233,605 -124,1305 -93,1382 31,78 -156,373 -156,373z"/>
    <path class="fil7" d="M7023 3867c0,0 -182,16 -359,187 -177,172 -286,312 -286,312l-36 -208c0,0 67,-208 270,-322 203,-115 245,-125 312,-94 68,31 104,124 99,125z"/>
    <path class="fil7" d="M8063 4699c0,0 505,-479 583,-520 78,-42 260,182 307,260 46,78 46,452 26,525 -21,73 -78,146 -78,146 0,0 103,-5 140,-83 36,-78 67,-364 31,-489 -36,-125 -140,-567 -411,-541 -270,26 -593,510 -603,536 -10,25 5,166 5,166z"/>
    <path class="fil8" d="M6440 5862c152,201 438,341 573,246 67,-47 104,-168 124,-301 147,-19 459,-59 684,-83 10,35 31,73 65,114 130,154 270,81 346,-49 83,60 176,140 251,208 -645,227 -1804,403 -1949,205 -34,-47 -65,-171 -94,-340z"/>
    <path class="fil7" d="M6487 5593c0,0 130,-83 286,-140 156,-57 385,5 385,5 0,0 16,-119 16,-140 0,-21 -73,-73 -166,-73 -94,0 -229,31 -323,57 -94,26 -203,89 -203,89l5 202z"/>
    <path class="fil8" d="M6264 3872c0,0 603,-562 894,-583 292,-20 853,188 1061,229 208,42 666,-124 1040,625 375,748 0,1477 -520,1747 -50,26 -109,52 -175,77 -104,-110 -226,-263 -189,-337 37,-73 180,-293 264,-543 139,38 270,42 350,-19 218,-166 21,-925 -229,-1040 -97,-44 -211,11 -314,97 -86,-119 -180,-211 -272,-265 22,-43 38,-79 45,-102 31,-94 -145,-167 -385,-167 -115,0 -167,113 -191,231 -214,12 -465,31 -636,44 -43,-79 -98,-133 -161,-129 -155,9 -476,268 -556,583 -17,-265 -26,-448 -26,-448z"/>
    <path class="fil8" d="M8317 4249c-100,109 -171,216 -171,216 0,0 -135,114 -62,281 35,81 198,198 381,278 -32,204 -91,402 -190,482 -1,-4 -2,-8 -4,-11 -83,-219 -197,-125 -197,-125 -49,39 -203,114 -249,232 -229,26 -494,46 -672,57 13,-170 5,-320 5,-320 0,0 -93,-83 -229,-83 -103,0 -421,67 -540,230 -31,-270 -57,-575 -77,-847 128,205 514,-8 514,-8 0,0 166,-104 249,-249 48,-84 27,-290 -36,-446 159,-27 404,-63 596,-62 -15,108 -9,206 -9,206 0,0 105,156 250,125 64,-14 131,-83 190,-164 86,63 176,137 251,208z"/>
    <path class="fil7" d="M6649 6608c0,0 447,-73 769,-84 323,-10 988,-155 1321,-364 333,-208 541,-468 614,-821 73,-354 62,-552 62,-552 0,0 -83,864 -769,1124 -687,260 -1238,301 -1467,301 -229,0 -603,11 -603,11l73 385z"/>
    <path class="fil9" d="M4829 2728c0,0 395,3203 374,3474 -21,270 -1581,416 -1914,416 -333,0 -582,-229 -582,-1061 0,-98 -4,-198 -11,-299 746,-670 1644,-807 1645,-807 0,0 0,0 0,0 0,0 0,0 0,0 -698,-11 -1247,192 -1674,491 -75,-663 -231,-1363 -231,-2027 0,-874 1623,-874 2039,-832 416,42 354,645 354,645z"/>
    <path class="fil10" d="M6805 4746c0,0 83,374 145,541 63,166 562,104 728,52 167,-52 239,-104 312,-229 73,-125 146,-957 21,-895 -125,63 -1206,531 -1206,531z"/>
    <polygon class="fil8" points="6987,3825 7049,3971 7632,3924 7653,3805 "/>
    <path class="fil8" d="M8058 4044l119 -198c0,0 100,52 146,78 47,26 146,172 146,172l-172 177 -239 -229z"/>
    <polygon class="fil8" points="8427,5006 8682,5105 8380,5708 8250,5463 "/>
    <polygon class="fil8" points="8204,5822 8339,5536 8578,5931 8427,5984 "/>
    <path class="fil8" d="M7824 5593c0,0 -16,89 -16,131 0,41 -686,129 -686,129l36 -260 666 0z"/>
    <path class="fil7" d="M7990 5427c0,0 -52,47 -46,198 5,151 46,202 104,228 57,27 156,-15 156,-15 0,0 -99,135 -214,93 -114,-41 -187,-129 -187,-233 0,-105 37,-156 63,-188 26,-31 124,-83 124,-83z"/>
    <path class="fil7" d="M7756 4028c0,0 37,-281 68,-343 31,-62 140,-36 218,-21 78,16 177,104 177,104 0,0 58,-94 -109,-140 -166,-47 -317,-94 -400,15 -84,109 -94,380 -94,380l140 5z"/>
    <path class="fil11" d="M7595 4028c0,0 -801,281 -801,645 0,364 364,416 614,302 249,-115 582,-406 624,-614 42,-208 -31,-475 -437,-333z"/>
    <path class="fil5" d="M2498 3607c0,0 -457,603 -624,957 -166,354 -187,853 -187,853 0,0 187,-520 416,-895 229,-374 562,-603 562,-603l-167 -312z"/>
    <path class="fil12" d="M7351 4736c0,0 -156,109 -141,166 16,57 156,10 229,-68 73,-78 -88,-98 -88,-98z"/>
    <path class="fil12" d="M7293 4522c0,0 -140,-10 -93,78 47,89 187,-21 187,-73 0,-51 -94,-5 -94,-5z"/>
    <path class="fil13" d="M7637 4845c0,0 -11,197 -73,301 -62,104 -172,245 -172,245 0,0 401,-6 541,-198 141,-193 125,-343 125,-406 0,-62 31,-379 26,-457 -5,-78 -62,-177 -62,-177 0,0 52,223 -94,395 -146,172 -291,297 -291,297z"/>
    <path class="fil14" d="M7637 4824c0,0 5,-193 -162,-348 -166,-157 -442,-157 -442,-157 0,0 260,-166 474,-254 213,-89 348,-125 442,-21 93,104 135,182 93,312 -41,130 -140,275 -176,307 -37,31 -229,161 -229,161z"/>
    <path class="fil12" d="M7824 4106c0,0 140,109 26,250 -115,140 -52,-11 -36,-83 15,-73 -79,-110 -83,-151 -6,-42 93,-16 93,-16z"/>
    <path class="fil2" d="M9343 2764l-188 562 583 -312 -333 874 936 -583 -707 1581 1435 -1227 -998 1706 1934 -1456c0,0 -624,-292 -1414,-666 -791,-375 -1248,-479 -1248,-479z"/>
    <path class="fil1" d="M865 4304c0,0 -542,480 -768,868 -41,70 -71,137 -87,198 -8,36 -12,70 -9,101 2,18 5,34 12,50 135,343 509,592 748,738 240,146 437,250 437,250l208 -447 -384 270 270 -780 -655 489 406 -1186 -718 614 540 -1165z"/>
    <path class="fil3" d="M3778 6946c0,0 135,322 208,561 73,239 94,510 94,510 0,0 72,-406 31,-572 -42,-167 -229,-843 -364,-791 -136,52 31,292 31,292z"/>
    <path class="fil15" d="M2676 5277c159,-146 327,-268 491,-368 198,30 393,60 393,60l-729 292 583 166 -707 187c0,0 -18,-151 -31,-337z"/>
    <path class="fil15" d="M2467 3617c0,0 614,63 614,63 0,0 0,0 0,0 0,0 0,0 0,0 0,0 -437,291 -437,291l978 0 -957 395c0,0 841,116 1025,141 -290,57 -547,156 -776,281 -99,34 -166,57 -166,57 0,0 21,3 55,8 -51,31 -101,65 -149,98 -29,-277 -103,-677 -103,-808 0,-156 -84,-526 -84,-526z"/>
    <path class="fil15" d="M3764 3370c-49,-1252 1900,-1239 2230,-944 329,295 265,2336 455,3025 189,690 188,1317 23,1505 -80,91 -305,171 -576,231 -318,-77 -643,-170 -973,-282 0,0 304,142 817,314 -250,47 -519,77 -741,87 -521,22 -872,-103 -837,-673 20,-318 -88,-1283 -188,-2090 222,-70 367,-92 367,-92 0,0 0,0 0,0 0,0 0,0 0,0 -131,-2 -256,3 -376,15 -76,-608 -200,-1061 -201,-1096z"/>
    <path class="fil16" d="M4490 5202l79 48 -521 260c0,0 -60,-471 -121,-952 248,-82 414,-107 414,-107 0,0 0,0 0,0 0,0 0,0 0,0 -148,-3 -290,5 -425,21 -60,-468 -117,-917 -117,-917l499 -73 -374 302c0,0 1081,-42 1081,-42 0,0 0,0 0,0 0,0 0,0 0,0 0,0 -1019,510 -1019,510 0,0 1299,-63 1300,-63 0,0 0,0 0,0 0,0 0,0 0,0 -1,1 -1185,520 -1186,520 0,0 0,0 0,0 0,0 0,0 0,0 1,0 821,11 822,11 0,0 0,0 0,0 0,0 0,0 0,0 -1,0 -738,291 -738,291l306 191z"/>
    <path class="fil16" d="M5349 2229c0,0 582,21 707,166 125,146 374,2351 416,2787 41,438 437,1259 125,1816 -70,124 -196,210 -353,267 -429,-89 -871,-207 -1321,-360 0,0 430,200 1128,414 -543,114 -1279,-2 -1451,-30 -250,-42 -479,-234 -458,-713 21,-478 1207,-1539 1435,-2350 229,-812 -228,-1997 -228,-1997z"/>
    <path class="fil15" d="M6451 4761c0,0 21,583 83,770 63,187 177,291 188,1196 3,294 -173,461 -411,552 -236,-48 -476,-104 -719,-170 387,-157 838,-340 838,-340 0,0 -1200,-198 -1201,-198 0,0 0,0 0,0 0,0 0,0 0,0 1,0 1357,-458 1357,-458l-1654 -207c0,0 1497,-364 1498,-364 0,0 0,0 0,0 0,0 0,0 0,0 -1,-1 -1404,-240 -1404,-240l1321 -187 -499 -224 603 -130z"/>
    <path class="fil15" d="M5514 7141c168,60 368,127 595,196 -479,98 -1062,-6 -1062,-6 0,0 211,-86 467,-190z"/>
    <path class="fil17" d="M8490 7496c-202,0 -410,-6 -622,-18 2611,-1925 6186,-4560 6186,-4560 0,0 322,169 314,273 -4,61 -3208,2412 -5878,4305z"/>
    <path class="fil17" d="M5181 9458c0,0 1041,-767 2411,-1776 172,28 349,53 531,74 -1721,1215 -3136,2177 -3179,2102 -111,-196 237,-400 237,-400z"/>
    <path class="fil17" d="M9518 7453c-205,18 -419,31 -642,38 2727,-1844 5996,-4055 5996,-4055l311 314c0,0 -2981,1956 -5665,3703z"/>
    <path class="fil17" d="M5251 9943c0,0 1430,-967 3187,-2156 170,15 343,25 519,30 -1930,1255 -3577,2314 -3636,2318 -43,3 -83,-1 -114,-11 -25,-8 -44,-21 -54,-38 -17,-32 5,-81 98,-143z"/>
    <path class="fil18" d="M8553 7496c-109,0 -219,-1 -331,-5 2700,-1948 6118,-4415 6118,-4415 0,0 135,52 73,146 -62,94 -5846,4264 -5846,4264 0,0 -5,4 -14,10z"/>
    <path class="fil18" d="M5000 9816c0,0 1285,-927 2902,-2094 89,12 180,24 271,34 -880,601 -2924,1998 -2924,1998 0,0 -124,94 -166,104 -42,10 -83,-42 -83,-42z"/>
    <path class="fil18" d="M9526 7452c-113,10 -229,19 -347,25 2716,-1809 5843,-3891 5843,-3891l187 208c0,0 -3024,1946 -5683,3658z"/>
    <path class="fil18" d="M5291 10113c0,0 1565,-1042 3442,-2292 90,4 181,9 272,12 -1845,1187 -3381,2176 -3381,2176 0,0 -166,114 -219,135 -8,3 -17,5 -26,5 -10,0 -20,-2 -29,-5 -33,-10 -59,-31 -59,-31z"/>
    <path class="fil15" d="M2851 2662c-27,20 -225,185 -218,357 6,172 159,139 271,53 112,-86 298,-450 165,-489 -132,-40 -218,79 -218,79z"/>
    <path class="fil15" d="M3473 2701c-146,0 -139,133 -73,219 66,86 311,39 304,-86 -6,-126 -231,-133 -231,-133z"/>
    <path class="fil15" d="M3347 3449c0,0 -119,178 -46,298 73,119 165,-53 172,-199 7,-145 -126,-99 -126,-99z"/>
    <path class="fil16" d="M5477 3092c0,0 -126,-159 -159,0 -33,158 7,430 106,364 99,-67 53,-364 53,-364z"/>
    <path class="fil16" d="M5193 2695c0,0 -199,-99 -238,40 -40,139 271,191 310,105 40,-86 -72,-145 -72,-145z"/>
    <path class="fil19" d="M4789 6187c0,0 -26,206 33,344 60,139 198,73 225,-119 26,-192 -234,-413 -258,-225z"/>
    <path class="fil19" d="M4385 6816c0,0 -99,86 34,218 132,132 363,53 310,-93 -52,-145 -298,-164 -344,-125z"/>
    <path class="fil15" d="M3856 6035c0,0 -397,0 -410,265 -13,264 463,185 490,13 26,-172 -80,-278 -80,-278z"/>
   </g>
  </g>
 </g>
</svg>
